<?xml version="1.0" encoding="UTF-8"?>
<svg version="1.1" xmlns="http://www.w3.org/2000/svg" width="512" height="512">
<path d="M0 0 C1.10879713 -0.00453111 2.21759427 -0.00906223 3.35999131 -0.01373065 C7.07697093 -0.02639513 10.79380441 -0.02475292 14.51080322 -0.02310181 C17.17523748 -0.0290858 19.83966027 -0.03583445 22.50408936 -0.04345703 C28.99173289 -0.06005475 35.47934008 -0.06556604 41.96700308 -0.06668179 C47.24233276 -0.06763292 52.51765048 -0.07174649 57.79297638 -0.07808304 C72.75868466 -0.09569273 87.72436428 -0.10492243 102.690083 -0.10342209 C103.89974771 -0.10330222 103.89974771 -0.10330222 105.1338501 -0.10317993 C105.9412812 -0.10309817 106.74871231 -0.10301641 107.58061102 -0.10293217 C120.66177298 -0.10211953 133.74281972 -0.12125238 146.82394835 -0.14945666 C160.26456229 -0.17820669 173.70512008 -0.19199577 187.14576554 -0.19026911 C194.68802396 -0.1896059 202.23016161 -0.19506776 209.77239227 -0.21662521 C216.19492874 -0.23486502 222.61728971 -0.23916155 229.03984091 -0.22560637 C232.31409364 -0.21909043 235.58794124 -0.22109645 238.86217499 -0.23631287 C242.41883239 -0.25176907 245.97461125 -0.24245332 249.53125 -0.22705078 C250.5563668 -0.23733791 251.58148361 -0.24762503 252.63766456 -0.25822389 C261.75596217 -0.17119794 269.72611933 2.24863948 276.48834229 8.56430054 C283.23304721 16.06606418 285.33597302 23.70470599 285.21490479 33.60336304 C285.21065994 34.9223912 285.21065994 34.9223912 285.20632935 36.26806641 C285.1951894 39.05966148 285.1700964 41.85092844 285.14459229 44.64242554 C285.13455448 46.54216047 285.12543003 48.44190046 285.11724854 50.34164429 C285.09527035 54.9836966 285.06078338 59.62550556 285.01959229 64.26742554 C286.17894287 64.24647827 287.33829346 64.22553101 288.53277588 64.20394897 C292.87509586 64.13100323 297.21736278 64.08542927 301.56011963 64.04769897 C303.43195738 64.02770691 305.30373367 64.00050385 307.175354 63.96566772 C330.82260246 63.53686429 330.82260246 63.53686429 340.48834229 72.56430054 C347.7370654 80.62665584 349.31866431 88.68226335 349.28701782 99.24783325 C349.29154894 100.35663038 349.29608005 101.46542752 349.30074847 102.60782456 C349.31341295 106.32480418 349.31177074 110.04163766 349.31011963 113.75863647 C349.31610362 116.42307073 349.32285228 119.08749353 349.33047485 121.75192261 C349.34707257 128.23956614 349.35258386 134.72717333 349.35369961 141.21483633 C349.35465074 146.49016601 349.35876431 151.76548373 349.36510086 157.04080963 C349.38271055 172.00651791 349.39194025 186.97219753 349.39043991 201.93791625 C349.39036 202.74435939 349.39028009 203.55080254 349.39019775 204.38168335 C349.39011599 205.18911445 349.39003423 205.99654556 349.38994999 206.82844427 C349.38913735 219.90960623 349.4082702 232.99065297 349.43647449 246.07178161 C349.46522451 259.51239554 349.47901359 272.95295333 349.47728693 286.39359879 C349.47662372 293.93585721 349.48208558 301.47799486 349.50364304 309.02022552 C349.52188284 315.44276199 349.52617938 321.86512296 349.51262419 328.28767416 C349.50610826 331.56192689 349.50811427 334.8357745 349.52333069 338.11000824 C349.5387869 341.66666564 349.52947115 345.2224445 349.5140686 348.77908325 C349.52435573 349.80420006 349.53464286 350.82931686 349.54524171 351.88549781 C349.45821576 361.00379542 347.03837834 368.97395259 340.72271729 375.73617554 C334.07865234 381.70973852 327.01758819 384.51424504 318.06229019 384.52469444 C317.04337533 384.52995355 317.04337533 384.52995355 316.00387633 384.53531891 C313.72910531 384.54461826 311.45459113 384.53971345 309.17980957 384.53485107 C307.5318359 384.53858808 305.883864 384.5431898 304.23589492 384.54858172 C299.7081073 384.560821 295.18039352 384.56055016 290.65259314 384.55819297 C285.76901452 384.55778504 280.88545965 384.56882173 276.00189209 384.57830811 C266.43412647 384.59492433 256.8663855 384.60041794 247.29860666 384.60153286 C239.52137131 384.60248307 231.74414409 384.60659201 223.96691132 384.61293411 C201.91800135 384.63054846 179.86911085 384.63977272 157.8201938 384.63827316 C156.03702593 384.6381533 156.03702593 384.6381533 154.21783447 384.63803101 C153.02760468 384.63794924 151.83737488 384.63786748 150.61107752 384.63778324 C131.32206612 384.63697036 112.03313281 384.65610819 92.74414399 384.68430774 C72.93930285 384.71303301 53.1344998 384.72684822 33.32963729 384.72512019 C22.21034813 384.72445615 11.09114082 384.72995454 -0.02812958 384.75147629 C-9.49558594 384.76968339 -18.96292333 384.77403928 -28.43038961 384.76045744 C-33.25998895 384.75392536 -38.08936003 384.75381932 -42.91893768 384.77116394 C-47.34310572 384.78688904 -51.76686441 384.78403677 -56.19102243 384.76659568 C-57.78858964 384.76352454 -59.38618737 384.76716248 -60.9837186 384.77831583 C-72.2192752 384.85154153 -81.91256005 383.94341062 -90.44915771 375.97055054 C-97.69788083 367.90819524 -99.27947974 359.85258772 -99.24783325 349.28701782 C-99.25236436 348.17822069 -99.25689548 347.06942356 -99.2615639 345.92702651 C-99.27422838 342.21004689 -99.27258617 338.49321341 -99.27093506 334.7762146 C-99.27691905 332.11178035 -99.28366771 329.44735755 -99.29129028 326.78292847 C-99.307888 320.29528493 -99.31339929 313.80767774 -99.31451504 307.32001474 C-99.31546617 302.04468506 -99.31957974 296.76936734 -99.32591629 291.49404144 C-99.34352598 276.52833316 -99.35275568 261.56265354 -99.35125534 246.59693483 C-99.35117543 245.79049168 -99.35109552 244.98404854 -99.35101318 244.15316772 C-99.35089054 242.94202107 -99.35089054 242.94202107 -99.35076542 241.7064068 C-99.34995278 228.62524485 -99.36908563 215.54419811 -99.39728992 202.46306947 C-99.42603994 189.02245553 -99.43982902 175.58189774 -99.43810236 162.14125228 C-99.43743915 154.59899387 -99.44290101 147.05685622 -99.46445847 139.51462555 C-99.48269827 133.09208908 -99.48699481 126.66972811 -99.47343962 120.24717692 C-99.46692368 116.97292418 -99.4689297 113.69907658 -99.48414612 110.42484283 C-99.49960233 106.86818543 -99.49028658 103.31240657 -99.47488403 99.75576782 C-99.48517116 98.73065102 -99.49545829 97.70553421 -99.50605714 96.64935327 C-99.41903119 87.53105565 -96.99919377 79.56089849 -90.68353271 72.79867554 C-83.18176908 66.05397061 -75.54312726 63.9510448 -65.64447021 64.07211304 C-64.32544205 64.07635788 -64.32544205 64.07635788 -62.97976685 64.08068848 C-60.18817178 64.09182842 -57.39690481 64.11692143 -54.60540771 64.14242554 C-52.70567279 64.15246334 -50.8059328 64.16158779 -48.90618896 64.16976929 C-44.26413665 64.19174748 -39.6223277 64.22623444 -34.98040771 64.26742554 C-35.00135498 63.10807495 -35.02230225 61.94872437 -35.04388428 60.75424194 C-35.11683002 56.41192197 -35.16240398 52.06965504 -35.20013428 47.72689819 C-35.22012634 45.85506044 -35.2473294 43.98328416 -35.28216553 42.11166382 C-35.71096897 18.46441536 -35.71096897 18.46441536 -26.68353271 8.79867554 C-18.62117741 1.54995242 -10.5655699 -0.03164649 0 0 Z " fill="#7DB5F1" transform="translate(130.98040771484375,63.732574462890625)"/>
<path d="M0 0 C1.10879713 -0.00453111 2.21759427 -0.00906223 3.35999131 -0.01373065 C7.07697093 -0.02639513 10.79380441 -0.02475292 14.51080322 -0.02310181 C17.17523748 -0.0290858 19.83966027 -0.03583445 22.50408936 -0.04345703 C28.99173289 -0.06005475 35.47934008 -0.06556604 41.96700308 -0.06668179 C47.24233276 -0.06763292 52.51765048 -0.07174649 57.79297638 -0.07808304 C72.75868466 -0.09569273 87.72436428 -0.10492243 102.690083 -0.10342209 C103.89974771 -0.10330222 103.89974771 -0.10330222 105.1338501 -0.10317993 C105.9412812 -0.10309817 106.74871231 -0.10301641 107.58061102 -0.10293217 C120.66177298 -0.10211953 133.74281972 -0.12125238 146.82394835 -0.14945666 C160.26456229 -0.17820669 173.70512008 -0.19199577 187.14576554 -0.19026911 C194.68802396 -0.1896059 202.23016161 -0.19506776 209.77239227 -0.21662521 C216.19492874 -0.23486502 222.61728971 -0.23916155 229.03984091 -0.22560637 C232.31409364 -0.21909043 235.58794124 -0.22109645 238.86217499 -0.23631287 C242.41883239 -0.25176907 245.97461125 -0.24245332 249.53125 -0.22705078 C250.5563668 -0.23733791 251.58148361 -0.24762503 252.63766456 -0.25822389 C261.75596217 -0.17119794 269.72611933 2.24863948 276.48834229 8.56430054 C290.60792172 24.26873072 285.01959229 42.70035906 285.01959229 64.26742554 C179.41959229 64.26742554 73.81959229 64.26742554 -34.98040771 64.26742554 C-34.98040771 17.68219826 -34.98040771 17.68219826 -26.68353271 8.79867554 C-18.62117741 1.54995242 -10.5655699 -0.03164649 0 0 Z " fill="#3077ED" transform="translate(130.98040771484375,63.732574462890625)"/>
<path d="M0 0 C4.93908473 2.18089456 7.11587619 4.54234209 9.85546875 9.3046875 C10.36327744 12.5261364 10.36327744 12.5261364 10.37445068 16.06246948 C10.38195194 16.71688086 10.38945319 17.37129223 10.39718175 18.04553425 C10.41737986 20.2245317 10.40937264 22.40248071 10.40136719 24.58154297 C10.41010657 26.14892094 10.42059363 27.71629 10.43269348 29.28364563 C10.46052967 33.52909385 10.4639587 37.7742506 10.46297359 42.01977682 C10.46610475 46.46011968 10.49172718 50.90033167 10.51495361 55.34060669 C10.55550163 63.74461419 10.5758515 72.14854411 10.58892751 80.55263436 C10.60480161 90.1221894 10.64321897 99.69161251 10.68352079 109.26109099 C10.76590333 128.9422463 10.82000573 148.62339539 10.85546875 168.3046875 C11.33518127 167.82053375 11.8148938 167.33638 12.30914307 166.83755493 C17.2994917 161.80298577 22.29684551 156.77544946 27.29833984 151.75195312 C29.16440817 149.87582251 31.02867814 147.9979014 32.89111328 146.11816406 C35.56723675 143.41780293 38.24974491 140.72393039 40.93359375 138.03125 C41.766026 137.18849518 42.59845825 136.34574036 43.45611572 135.47744751 C44.23662292 134.69678925 45.01713013 133.91613098 45.82128906 133.11181641 C46.50523743 132.42342682 47.18918579 131.73503723 47.89385986 131.02578735 C52.21232904 127.23679724 55.804018 126.92332984 61.38671875 127.0546875 C66.21629457 127.54375847 68.96712392 129.32030539 72.16796875 132.8671875 C74.58767438 136.36231786 75.05817867 138.32488014 75.16796875 142.5546875 C75.22404297 143.95460938 75.22404297 143.95460938 75.28125 145.3828125 C74.3227741 151.96024343 68.83990483 156.60928163 64.31445312 161.10449219 C63.66680496 161.75564499 63.0191568 162.40679779 62.35188293 163.0776825 C60.2226444 165.21568067 58.08622486 167.34633039 55.94921875 169.4765625 C54.46206909 170.96506014 52.97521637 172.45385449 51.48864746 173.94293213 C48.37832245 177.05620031 45.26442218 180.16583568 42.14794922 183.27294922 C38.15300898 187.25647563 34.16714091 191.24893992 30.1838913 195.24415207 C27.11804936 198.31721739 24.04746438 201.38550777 20.97541809 204.45236969 C19.50353665 205.922917 18.03313937 207.39495137 16.56425476 208.86849213 C14.51312999 210.92469202 12.45571014 212.97437833 10.39648438 215.02246094 C9.48773308 215.93728493 9.48773308 215.93728493 8.56062317 216.87059021 C7.99715683 217.4284169 7.43369049 217.98624359 6.85314941 218.56097412 C6.36795082 219.04541866 5.88275223 219.5298632 5.38285065 220.02898788 C1.86019676 222.97117819 -1.36102907 223.68514272 -5.89453125 223.8671875 C-7.37179688 223.96193359 -7.37179688 223.96193359 -8.87890625 224.05859375 C-18.67827378 221.79629957 -27.87772098 208.73573765 -34.85546875 201.76171875 C-36.2740673 200.34633784 -37.69273917 198.93103042 -39.11148071 197.51579285 C-42.07007221 194.56316114 -45.02661806 191.60849835 -47.98193359 188.65258789 C-51.76981988 184.86459946 -55.56457116 181.08356864 -59.36107445 177.30421925 C-62.2863798 174.3900182 -65.20714332 171.47129795 -68.12663651 168.55127525 C-69.52447857 167.15461304 -70.92394202 165.75957164 -72.32505417 164.36618996 C-74.27795519 162.42306905 -76.22443923 160.47373582 -78.16943359 158.52270508 C-78.74812195 157.94963623 -79.3268103 157.37656738 -79.92303467 156.78613281 C-83.94391313 152.73341421 -86.4168948 149.77061952 -86.51953125 143.9921875 C-86.37894908 139.23582422 -85.3186859 135.88783686 -82.14453125 132.3046875 C-78.53262324 129.20988563 -75.35714295 127.49957152 -70.64453125 126.7421875 C-61.81466449 128.16127323 -56.49377312 133.39865886 -50.48828125 139.5703125 C-49.70054321 140.36371033 -48.91280518 141.15710815 -48.10119629 141.97454834 C-45.60603086 144.49196878 -43.12519555 147.02298469 -40.64453125 149.5546875 C-38.94754461 151.27175299 -37.24963707 152.98790886 -35.55078125 154.703125 C-31.4046503 158.89317901 -27.27017225 163.09446222 -23.14453125 167.3046875 C-23.14398648 166.50807961 -23.14344172 165.71147171 -23.14288044 164.89072418 C-23.127903 145.49354778 -23.08541724 126.09660938 -23.01244068 106.69956207 C-22.97781049 97.31921293 -22.95243774 87.93901045 -22.94897461 78.55859375 C-22.94593197 70.38112058 -22.92540127 62.20390873 -22.88400668 54.02653646 C-22.86270208 49.69794881 -22.85006292 45.36973243 -22.85837746 41.04109192 C-22.86593382 36.96315638 -22.85003128 32.88597211 -22.8164711 28.80817413 C-22.8082568 27.31510379 -22.80846555 25.82195848 -22.81793404 24.32889557 C-22.90359569 9.33107822 -22.90359569 9.33107822 -17.14453125 3.3046875 C-12.03594469 -1.04721499 -6.29972299 -2.04253314 0 0 Z " fill="#FDFEFE" transform="translate(262.14453125,176.6953125)"/>
</svg>
