<?xml version="1.0" encoding="UTF-8"?>
<svg version="1.1" xmlns="http://www.w3.org/2000/svg" width="200" height="200">
<path d="M0 0 C1.65 0.66 3.3 1.32 5 2 C4.25 6.75 4.25 6.75 2 9 C3.65 9.33 5.3 9.66 7 10 C7.6875 11.8125 7.6875 11.8125 8 14 C6.75 15.75 6.75 15.75 5 17 C4.01 17 3.02 17 2 17 C1.13852726 23.97761838 1.13852726 23.97761838 1 31 C1.99 30.67 2.98 30.34 4 30 C4.80563638 27.89415562 4.80563638 27.89415562 5.1875 25.4375 C5.34605469 24.61121094 5.50460938 23.78492187 5.66796875 22.93359375 C5.77753906 22.29550781 5.88710937 21.65742187 6 21 C7.88671875 20.42578125 7.88671875 20.42578125 10 20 C11.8125 21.1875 11.8125 21.1875 13 23 C12.7181953 25.32488881 12.04553582 26.90892835 11 29 C11.55330193 30.96287192 11.55330193 30.96287192 12.4375 33.125 C15.14253841 40.92847487 14.47972858 47.49770518 11 55 C7.71646007 60.25133513 3.33610859 64.05101896 -2.6640625 65.7578125 C-12.03188483 67.67010698 -20.70409388 66.93270094 -29 62 C-29 62.99 -29 63.98 -29 65 C-31.76452033 66.38226016 -34.0461363 66.09525387 -37.125 66.0625 C-38.22070312 66.05347656 -39.31640625 66.04445313 -40.4453125 66.03515625 C-41.70988281 66.01775391 -41.70988281 66.01775391 -43 66 C-43.66 64.02 -44.32 62.04 -45 60 C-45.54269531 60.34933594 -46.08539063 60.69867188 -46.64453125 61.05859375 C-47.35996094 61.51363281 -48.07539062 61.96867187 -48.8125 62.4375 C-49.52019531 62.88996094 -50.22789063 63.34242188 -50.95703125 63.80859375 C-56.72730022 67.17366456 -63.54118734 66.53155955 -70 66 C-74.44757817 64.58586065 -77.56652119 62.00808275 -80 58 C-80.44730469 58.40992188 -80.89460938 58.81984375 -81.35546875 59.2421875 C-81.96003906 59.78101563 -82.56460938 60.31984375 -83.1875 60.875 C-83.77917969 61.40867188 -84.37085938 61.94234375 -84.98046875 62.4921875 C-91.03817405 67.01496167 -97.75031028 66.57595265 -105 66 C-109.18395696 64.65515669 -112.14946635 62.56946982 -114.95263672 59.14013672 C-117.33805098 54.26588463 -116.49164406 48.41663982 -116.3125 43.125 C-116.27866211 41.23394531 -116.27866211 41.23394531 -116.24414062 39.3046875 C-116.18537581 36.20190501 -116.10325851 33.10156801 -116 30 C-117.98 29.67 -119.96 29.34 -122 29 C-123.125 21.25 -123.125 21.25 -122 19 C-120.35 18.34 -118.7 17.68 -117 17 C-116.67 12.71 -116.34 8.42 -116 4 C-109.65458159 1.46183263 -106.37899716 0.42125647 -100 3 C-99.505 9.93 -99.505 9.93 -99 17 C-97.39125 17.12375 -95.7825 17.2475 -94.125 17.375 C-89.25 17.75 -89.25 17.75 -87 20 C-86.34 19.34 -85.68 18.68 -85 18 C-82.375 17.875 -82.375 17.875 -80 18 C-80.01160156 16.92878906 -80.02320313 15.85757813 -80.03515625 14.75390625 C-80.04453299 13.35677257 -80.05363331 11.95963701 -80.0625 10.5625 C-80.07087891 9.85544922 -80.07925781 9.14839844 -80.08789062 8.41992188 C-80.09653588 6.61306441 -80.05220011 4.80612397 -80 3 C-78.20095222 1.20095222 -75.54936549 1.82703457 -73.125 1.8125 C-71.52011719 1.79123047 -71.52011719 1.79123047 -69.8828125 1.76953125 C-67 2 -67 2 -64 4 C-63.70703125 7.2578125 -63.70703125 7.2578125 -63.8125 11.125 C-63.85310547 13.04699219 -63.85310547 13.04699219 -63.89453125 15.0078125 C-63.92933594 15.99523437 -63.96414062 16.98265625 -64 18 C-60.37 18 -56.74 18 -53 18 C-51.88554502 20.22890995 -51.83519714 21.53055106 -51.8125 24 C-51.79832031 24.70125 -51.78414063 25.4025 -51.76953125 26.125 C-52 28 -52 28 -54 30 C-57.3 30 -60.6 30 -64 30 C-63.505 41.385 -63.505 41.385 -63 53 C-54.3305236 53.18035499 -54.3305236 53.18035499 -47.02050781 49.73730469 C-42.03842232 42.98777078 -43.72968743 32.63848732 -43.875 24.625 C-43.87694255 22.53255136 -43.87438813 20.4400934 -43.8671875 18.34765625 C-43.85937174 13.2301984 -43.91321198 8.1166925 -44 3 C-42.08496326 2.77718126 -40.16783494 2.57228924 -38.25 2.375 C-36.64898437 2.20097656 -36.64898437 2.20097656 -35.015625 2.0234375 C-32 2 -32 2 -28 4 C-28 9.94 -28 15.88 -28 22 C-26.659375 21.38125 -25.31875 20.7625 -23.9375 20.125 C-20.99280767 18.79663721 -18.20711803 17.72976368 -15.0625 17 C-11.9146549 16.34843285 -11.9146549 16.34843285 -10.875 14.0625 C-10.58625 13.381875 -10.2975 12.70125 -10 12 C-9.175 11.54625 -8.35 11.0925 -7.5 10.625 C-4.23842483 8.50497614 -4.06545829 6.65299984 -3 3 C-1.375 1.125 -1.375 1.125 0 0 Z M-88 27 C-88.66 27.66 -89.32 28.32 -90 29 C-92.3828125 29.4140625 -92.3828125 29.4140625 -95.125 29.625 C-96.03507812 29.69976562 -96.94515625 29.77453125 -97.8828125 29.8515625 C-98.93082031 29.92503906 -98.93082031 29.92503906 -100 30 C-100.02887236 33.81248426 -100.04675492 37.6249407 -100.0625 41.4375 C-100.07087891 42.52611328 -100.07925781 43.61472656 -100.08789062 44.73632812 C-100.09111328 45.77080078 -100.09433594 46.80527344 -100.09765625 47.87109375 C-100.10289307 48.82943115 -100.10812988 49.78776855 -100.11352539 50.77514648 C-100.2505313 52.97285339 -100.2505313 52.97285339 -99 54 C-91.58641011 54.9435478 -86.897608 52.43757639 -81 48 C-79.40587716 44.81175432 -79.89825265 41.37103338 -79.9375 37.875 C-79.94201172 37.12089844 -79.94652344 36.36679688 -79.95117188 35.58984375 C-79.96296501 33.72652873 -79.98090058 31.86325445 -80 30 C-82.97 29.505 -82.97 29.505 -86 29 C-86 28.34 -86 27.68 -86 27 C-86.66 27 -87.32 27 -88 27 Z M-14 28 C-14.33 29.65 -14.66 31.3 -15 33 C-14.01 32.01 -13.02 31.02 -12 30 C-12.66 29.34 -13.32 28.68 -14 28 Z M-21 30 C-23.93160428 31.61537379 -26.29296369 33.1001356 -28.375 35.75 C-29.33315962 39.19937462 -29.11908512 42.42744626 -29 46 C-28.34 46 -27.68 46 -27 46 C-25.3682707 43.52589781 -23.85299836 41.06340341 -22.375 38.5 C-21.95476562 37.78457031 -21.53453125 37.06914063 -21.1015625 36.33203125 C-20.06111411 34.55853967 -19.02971096 32.77974734 -18 31 C-18.99 30.67 -19.98 30.34 -21 30 Z M-17 34 C-16 36 -16 36 -16 36 Z M-18 36 C-18.33 36.66 -18.66 37.32 -19 38 C-18.34 38 -17.68 38 -17 38 C-17.33 37.34 -17.66 36.68 -18 36 Z M-4 37 C-5.38733501 38.82032492 -6.68574816 40.7089106 -7.9375 42.625 C-8.62714844 43.66914062 -9.31679687 44.71328125 -10.02734375 45.7890625 C-11.87285149 48.79303748 -13.47786757 51.82213103 -15 55 C-10.70425887 54.74730935 -8.52481771 54.4431794 -5.1875 51.625 C-1.99747027 48.12988309 -1.99747027 48.12988309 -1.0234375 43.73828125 C-1.13945313 42.93777344 -1.25546875 42.13726562 -1.375 41.3125 C-1.48585938 40.50425781 -1.59671875 39.69601563 -1.7109375 38.86328125 C-1.80632812 38.24839844 -1.90171875 37.63351563 -2 37 C-2.66 37 -3.32 37 -4 37 Z M-20 38 C-19 40 -19 40 -19 40 Z M-21 40 C-20 42 -20 42 -20 42 Z M-23 42 C-24.62507196 44.8331162 -24.62507196 44.8331162 -26 48 C-25.67 48.99 -25.34 49.98 -25 51 C-24.34 49.88625 -23.68 48.7725 -23 47.625 C-22.62875 46.99851562 -22.2575 46.37203125 -21.875 45.7265625 C-20.84931652 44.02527333 -20.84931652 44.02527333 -21 42 C-21.66 42 -22.32 42 -23 42 Z M-21 49 C-20 51 -20 51 -20 51 Z M-23 51 C-23 51.66 -23 52.32 -23 53 C-22.34 53 -21.68 53 -21 53 C-21 52.34 -21 51.68 -21 51 C-21.66 51 -22.32 51 -23 51 Z " fill="#217D2A" transform="translate(127,66)"/>
<path d="M0 0 C2.475 0.99 2.475 0.99 5 2 C4.25 6.75 4.25 6.75 2 9 C4.475 9.495 4.475 9.495 7 10 C7.6875 11.8125 7.6875 11.8125 8 14 C6.75 15.75 6.75 15.75 5 17 C4.01 17 3.02 17 2 17 C1.13852726 23.97761838 1.13852726 23.97761838 1 31 C1.99 30.67 2.98 30.34 4 30 C4.80563638 27.89415562 4.80563638 27.89415562 5.1875 25.4375 C5.34605469 24.61121094 5.50460938 23.78492187 5.66796875 22.93359375 C5.77753906 22.29550781 5.88710937 21.65742187 6 21 C7.88671875 20.42578125 7.88671875 20.42578125 10 20 C11.8125 21.1875 11.8125 21.1875 13 23 C12.7181953 25.32488881 12.04553582 26.90892835 11 29 C11.55330193 30.96287192 11.55330193 30.96287192 12.4375 33.125 C15.14253841 40.92847487 14.47972858 47.49770518 11 55 C7.71646007 60.25133513 3.33610859 64.05101896 -2.6640625 65.7578125 C-12.03188483 67.67010698 -20.70409388 66.93270094 -29 62 C-29 62.99 -29 63.98 -29 65 C-31.74505463 66.37252731 -34.00327412 66.13229255 -37.0625 66.125 C-38.68865234 66.12886719 -38.68865234 66.12886719 -40.34765625 66.1328125 C-43 66 -43 66 -44 65 C-44.07308082 61.46928271 -43.99604202 57.94878436 -43.9375 54.41796875 C-43.86270983 51.21863328 -43.86270983 51.21863328 -44.50254822 49.06719971 C-45.05126831 46.78695055 -45.08231365 44.84946111 -45.02172852 42.50683594 C-45.00163223 41.62622498 -44.98153595 40.74561401 -44.96083069 39.83831787 C-44.93379562 38.89651672 -44.90676056 37.95471558 -44.87890625 36.984375 C-44.85529526 36.01340881 -44.83168427 35.04244263 -44.80735779 34.04205322 C-44.73085945 30.9445483 -44.64677543 27.84730213 -44.5625 24.75 C-44.50926548 22.64845011 -44.45652518 20.54688764 -44.40429688 18.4453125 C-44.27526296 13.29671152 -44.13942602 8.14832961 -44 3 C-42.08496326 2.77718126 -40.16783494 2.57228924 -38.25 2.375 C-37.18265625 2.25898437 -36.1153125 2.14296875 -35.015625 2.0234375 C-32 2 -32 2 -28 4 C-28 9.94 -28 15.88 -28 22 C-26.659375 21.38125 -25.31875 20.7625 -23.9375 20.125 C-20.99280767 18.79663721 -18.20711803 17.72976368 -15.0625 17 C-11.9146549 16.34843285 -11.9146549 16.34843285 -10.875 14.0625 C-10.58625 13.381875 -10.2975 12.70125 -10 12 C-9.175 11.54625 -8.35 11.0925 -7.5 10.625 C-4.23842483 8.50497614 -4.06545829 6.65299984 -3 3 C-1.375 1.125 -1.375 1.125 0 0 Z M-14 28 C-14.33 29.65 -14.66 31.3 -15 33 C-14.01 32.01 -13.02 31.02 -12 30 C-12.66 29.34 -13.32 28.68 -14 28 Z M-21 30 C-23.93160428 31.61537379 -26.29296369 33.1001356 -28.375 35.75 C-29.33315962 39.19937462 -29.11908512 42.42744626 -29 46 C-28.34 46 -27.68 46 -27 46 C-25.3682707 43.52589781 -23.85299836 41.06340341 -22.375 38.5 C-21.95476562 37.78457031 -21.53453125 37.06914063 -21.1015625 36.33203125 C-20.06111411 34.55853967 -19.02971096 32.77974734 -18 31 C-18.99 30.67 -19.98 30.34 -21 30 Z M-17 34 C-16 36 -16 36 -16 36 Z M-18 36 C-18.33 36.66 -18.66 37.32 -19 38 C-18.34 38 -17.68 38 -17 38 C-17.33 37.34 -17.66 36.68 -18 36 Z M-4 37 C-5.38733501 38.82032492 -6.68574816 40.7089106 -7.9375 42.625 C-8.62714844 43.66914062 -9.31679687 44.71328125 -10.02734375 45.7890625 C-11.87285149 48.79303748 -13.47786757 51.82213103 -15 55 C-10.70425887 54.74730935 -8.52481771 54.4431794 -5.1875 51.625 C-1.99747027 48.12988309 -1.99747027 48.12988309 -1.0234375 43.73828125 C-1.13945313 42.93777344 -1.25546875 42.13726562 -1.375 41.3125 C-1.48585938 40.50425781 -1.59671875 39.69601563 -1.7109375 38.86328125 C-1.80632812 38.24839844 -1.90171875 37.63351563 -2 37 C-2.66 37 -3.32 37 -4 37 Z M-20 38 C-19 40 -19 40 -19 40 Z M-21 40 C-20 42 -20 42 -20 42 Z M-23 42 C-24.62507196 44.8331162 -24.62507196 44.8331162 -26 48 C-25.67 48.99 -25.34 49.98 -25 51 C-24.34 49.88625 -23.68 48.7725 -23 47.625 C-22.62875 46.99851562 -22.2575 46.37203125 -21.875 45.7265625 C-20.84931652 44.02527333 -20.84931652 44.02527333 -21 42 C-21.66 42 -22.32 42 -23 42 Z M-21 49 C-20 51 -20 51 -20 51 Z M-23 51 C-23 51.66 -23 52.32 -23 53 C-22.34 53 -21.68 53 -21 53 C-21 52.34 -21 51.68 -21 51 C-21.66 51 -22.32 51 -23 51 Z " fill="#3E68A3" transform="translate(127,66)"/>
<path d="M0 0 C2.475 0.99 2.475 0.99 5 2 C4.25 6.75 4.25 6.75 2 9 C4.475 9.495 4.475 9.495 7 10 C7.6875 11.8125 7.6875 11.8125 8 14 C6.75 15.75 6.75 15.75 5 17 C4.01 17 3.02 17 2 17 C1.90912109 17.95712891 1.90912109 17.95712891 1.81640625 18.93359375 C1.73261719 19.75988281 1.64882812 20.58617188 1.5625 21.4375 C1.48128906 22.26121094 1.40007812 23.08492187 1.31640625 23.93359375 C1 26 1 26 0 27 C-0.24733137 31.14276875 -0.24733137 31.14276875 1 35 C0.34 35 -0.32 35 -1 35 C-1 35.66 -1 36.32 -1 37 C-1.99 37 -2.98 37 -4 37 C-4.25910156 37.53496094 -4.51820312 38.06992188 -4.78515625 38.62109375 C-6.24951764 41.48860529 -7.82998805 44.27268894 -9.4375 47.0625 C-10.03433594 48.10535156 -10.63117188 49.14820313 -11.24609375 50.22265625 C-14.68679441 55.67107087 -14.68679441 55.67107087 -18.04296875 56.51171875 C-20.02864583 56.67447917 -22.01432292 56.83723958 -24 57 C-24 56.34 -24 55.68 -24 55 C-24.66 55 -25.32 55 -26 55 C-26.33 54.34 -26.66 53.68 -27 53 C-27.99 52.67 -28.98 52.34 -30 52 C-29.67 51.01 -29.34 50.02 -29 49 C-28.01 48.505 -28.01 48.505 -27 48 C-27.99 48 -28.98 48 -30 48 C-31.51391786 44.97216428 -31.535398 42.27187666 -31 39 C-29.68974795 35.44659644 -28.23391729 32.06869691 -26 29 C-23.96875 28.24609375 -23.96875 28.24609375 -22 28 C-21.2575 27.814375 -20.515 27.62875 -19.75 27.4375 C-18.88375 27.2209375 -18.88375 27.2209375 -18 27 C-18 26.34 -18 25.68 -18 25 C-17.34 24.67 -16.68 24.34 -16 24 C-16 23.01 -16 22.02 -16 21 C-16.54269531 21.2165625 -17.08539063 21.433125 -17.64453125 21.65625 C-18.35996094 21.9346875 -19.07539062 22.213125 -19.8125 22.5 C-20.52019531 22.7784375 -21.22789063 23.056875 -21.95703125 23.34375 C-24 24 -24 24 -27 24 C-26.67 23.01 -26.34 22.02 -26 21 C-23.6015625 19.8671875 -23.6015625 19.8671875 -20.625 18.875 C-19.64789063 18.54242188 -18.67078125 18.20984375 -17.6640625 17.8671875 C-16.78492187 17.58101562 -15.90578125 17.29484375 -15 17 C-14.01 16.67 -13.02 16.34 -12 16 C-11.566875 15.071875 -11.566875 15.071875 -11.125 14.125 C-10 12 -10 12 -7.5 10.625 C-4.23842483 8.50497614 -4.06545829 6.65299984 -3 3 C-1.375 1.125 -1.375 1.125 0 0 Z M-14 28 C-14.33 29.65 -14.66 31.3 -15 33 C-14.01 32.01 -13.02 31.02 -12 30 C-12.66 29.34 -13.32 28.68 -14 28 Z M-21 30 C-23.93160428 31.61537379 -26.29296369 33.1001356 -28.375 35.75 C-29.33315962 39.19937462 -29.11908512 42.42744626 -29 46 C-28.34 46 -27.68 46 -27 46 C-25.3682707 43.52589781 -23.85299836 41.06340341 -22.375 38.5 C-21.95476562 37.78457031 -21.53453125 37.06914063 -21.1015625 36.33203125 C-20.06111411 34.55853967 -19.02971096 32.77974734 -18 31 C-18.99 30.67 -19.98 30.34 -21 30 Z M-17 34 C-16 36 -16 36 -16 36 Z M-18 36 C-18.33 36.66 -18.66 37.32 -19 38 C-18.34 38 -17.68 38 -17 38 C-17.33 37.34 -17.66 36.68 -18 36 Z M-20 38 C-19 40 -19 40 -19 40 Z M-21 40 C-20 42 -20 42 -20 42 Z M-23 42 C-24.62507196 44.8331162 -24.62507196 44.8331162 -26 48 C-25.67 48.99 -25.34 49.98 -25 51 C-24.34 49.88625 -23.68 48.7725 -23 47.625 C-22.62875 46.99851562 -22.2575 46.37203125 -21.875 45.7265625 C-20.84931652 44.02527333 -20.84931652 44.02527333 -21 42 C-21.66 42 -22.32 42 -23 42 Z M-21 49 C-20 51 -20 51 -20 51 Z M-23 51 C-23 51.66 -23 52.32 -23 53 C-22.34 53 -21.68 53 -21 53 C-21 52.34 -21 51.68 -21 51 C-21.66 51 -22.32 51 -23 51 Z " fill="#486084" transform="translate(127,66)"/>
<path d="M0 0 C4.29 0 8.58 0 13 0 C13.33 4.95 13.66 9.9 14 15 C16.64 15.99 19.28 16.98 22 18 C21.67 19.32 21.34 20.64 21 22 C18.69 22 16.38 22 14 22 C12.62737724 24.74524552 12.8703119 26.96219295 12.8671875 30.03125 C12.86589844 31.23394531 12.86460938 32.43664062 12.86328125 33.67578125 C12.86908203 35.56876953 12.86908203 35.56876953 12.875 37.5 C12.87113281 38.76199219 12.86726563 40.02398437 12.86328125 41.32421875 C12.86457031 42.52691406 12.86585937 43.72960937 12.8671875 44.96875 C12.86831543 46.07669922 12.86944336 47.18464844 12.87060547 48.32617188 C12.81848531 50.97318516 12.81848531 50.97318516 14 53 C15.89533342 53.46523063 15.89533342 53.46523063 18.0625 53.625 C20.0115625 53.810625 20.0115625 53.810625 22 54 C22 53.34 22 52.68 22 52 C23.3921875 52.0309375 23.3921875 52.0309375 24.8125 52.0625 C28.02286011 52.15769604 28.02286011 52.15769604 31 51 C31.495 50.01 31.495 50.01 32 49 C32.495 51.475 32.495 51.475 33 54 C30.03 54.495 30.03 54.495 27 55 C27 55.66 27 56.32 27 57 C23.41114625 57.81564858 20.05414195 58.16216156 16.375 58.1875 C15.43398438 58.20167969 14.49296875 58.21585938 13.5234375 58.23046875 C11 58 11 58 8 56 C7.01 56 6.02 56 5 56 C4.34 54.35 3.68 52.7 3 51 C0.69 51 -1.62 51 -4 51 C-4 49.35 -4 47.7 -4 46 C-2.02 45.505 -2.02 45.505 0 45 C-0.0806251 41.54069307 -0.19348464 38.08318225 -0.3125 34.625 C-0.33505859 33.64015625 -0.35761719 32.6553125 -0.38085938 31.640625 C-0.41630859 30.69960937 -0.45175781 29.75859375 -0.48828125 28.7890625 C-0.51446533 27.91975098 -0.54064941 27.05043945 -0.56762695 26.15478516 C-0.81345218 23.61399973 -0.81345218 23.61399973 -4 22 C-3.67 20.02 -3.34 18.04 -3 16 C-3.66 15.67 -4.32 15.34 -5 15 C-3.35 15 -1.7 15 0 15 C0 10.05 0 5.1 0 0 Z " fill="#098E0F" transform="translate(48,70)"/>
<path d="M0 0 C2.3515764 2.35659042 2.32210015 3.61972295 2.39453125 6.8984375 C2.39920721 9.50531324 2.39920721 9.50531324 2.83203125 11.8359375 C3.82203125 12.4959375 4.81203125 13.1559375 5.83203125 13.8359375 C5.83203125 14.4959375 5.83203125 15.1559375 5.83203125 15.8359375 C6.78078125 15.6296875 7.72953125 15.4234375 8.70703125 15.2109375 C10.25390625 15.0253125 10.25390625 15.0253125 11.83203125 14.8359375 C12.49203125 15.4959375 13.15203125 16.1559375 13.83203125 16.8359375 C13.17203125 18.1559375 12.51203125 19.4759375 11.83203125 20.8359375 C8.86203125 20.8359375 5.89203125 20.8359375 2.83203125 20.8359375 C2.9701403 25.31537785 3.11880541 29.79440533 3.26953125 34.2734375 C3.30884766 35.55283203 3.34816406 36.83222656 3.38867188 38.15039062 C3.43056641 39.36533203 3.47246094 40.58027344 3.515625 41.83203125 C3.55228271 42.95794678 3.58894043 44.0838623 3.62670898 45.24389648 C3.5442117 47.76447191 3.5442117 47.76447191 4.83203125 48.8359375 C7.18190387 49.07121523 9.53759164 49.24980167 11.89453125 49.3984375 C13.18488281 49.48222656 14.47523437 49.56601563 15.8046875 49.65234375 C17.30322266 49.74322266 17.30322266 49.74322266 18.83203125 49.8359375 C18.50203125 51.4859375 18.17203125 53.1359375 17.83203125 54.8359375 C10.21325108 57.32669256 2.49560267 57.39046131 -5.16796875 54.8359375 C-11.20276416 48.58288548 -9.65240364 40.20112227 -9.56835938 32.04882812 C-9.57931641 30.91251953 -9.59027344 29.77621094 -9.6015625 28.60546875 C-9.59181396 27.57010986 -9.58206543 26.53475098 -9.57202148 25.46801758 C-9.89886105 22.58885303 -9.89886105 22.58885303 -12.70336914 21.2253418 C-13.51668701 20.76683838 -14.33000488 20.30833496 -15.16796875 19.8359375 C-15.16796875 18.5159375 -15.16796875 17.1959375 -15.16796875 15.8359375 C-11.95368304 12.8359375 -11.95368304 12.8359375 -9.16796875 12.8359375 C-9.17957031 12.14886719 -9.19117188 11.46179688 -9.203125 10.75390625 C-9.21214844 9.85285156 -9.22117187 8.95179687 -9.23046875 8.0234375 C-9.24207031 7.13011719 -9.25367188 6.23679687 -9.265625 5.31640625 C-9.16796875 2.8359375 -9.16796875 2.8359375 -8.16796875 -0.1640625 C-2.80334368 -1.50521877 -2.80334368 -1.50521877 0 0 Z " fill="#0A8E0F" transform="translate(22.16796875,72.1640625)"/>
<path d="M0 0 C0.625 2.3125 0.625 2.3125 1 5 C0.34 5.99 -0.32 6.98 -1 8 C-0.57848837 10.05513364 -0.57848837 10.05513364 0.375 12.1875 C3.1839202 19.94965 2.47381616 26.51045235 -1 34 C-4.28353993 39.25133513 -8.66389141 43.05101896 -14.6640625 44.7578125 C-24.03188483 46.67010698 -32.70409388 45.93270094 -41 41 C-41 41.99 -41 42.98 -41 44 C-43.74505463 45.37252731 -46.00327412 45.13229255 -49.0625 45.125 C-50.68865234 45.12886719 -50.68865234 45.12886719 -52.34765625 45.1328125 C-55 45 -55 45 -56 44 C-56.07319621 41.30345146 -56.09242537 38.63308542 -56.0625 35.9375 C-56.05798828 35.17888672 -56.05347656 34.42027344 -56.04882812 33.63867188 C-56.0370068 31.75908129 -56.01907078 29.87953101 -56 28 C-55.34 28.33 -54.68 28.66 -54 29 C-54.01160156 29.75925781 -54.02320312 30.51851562 -54.03515625 31.30078125 C-54.04417969 32.29464844 -54.05320312 33.28851563 -54.0625 34.3125 C-54.07410156 35.29863281 -54.08570312 36.28476563 -54.09765625 37.30078125 C-54.12329862 40.09963849 -54.12329862 40.09963849 -53 43 C-49.7 43 -46.4 43 -43 43 C-42.67 41.35 -42.34 39.7 -42 38 C-38.41252929 36.94786066 -34.85095488 35.96481306 -31.2109375 35.10546875 C-29.94507812 34.80253906 -28.67921875 34.49960938 -27.375 34.1875 C-26.10398437 33.89230469 -24.83296875 33.59710938 -23.5234375 33.29296875 C-19.05702397 31.65396334 -16.14779918 29.29559837 -14 25 C-13.95524382 23.50066785 -13.9610521 21.99949427 -14 20.5 C-14.11111111 16.22222222 -14.11111111 16.22222222 -13 14 C-12.67 13.67 -12.34 13.34 -12 13 C-12.33 13 -12.66 13 -13 13 C-13 10.69 -13 8.38 -13 6 C-12.01 7.32 -11.02 8.64 -10 10 C-7.2027092 7.93243723 -6.97307727 6.85559629 -6.3125 3.3125 C-6.209375 2.219375 -6.10625 1.12625 -6 0 C-3 -1 -3 -1 0 0 Z " fill="#3E5F90" transform="translate(139,87)"/>
<path d="M0 0 C2.50357861 0.8345262 4.66785852 1.79371992 7 3 C7.64748201 18.94724221 7.64748201 18.94724221 2.48828125 24.6796875 C-4.74927156 31.47810789 -12.53322984 31.27980601 -22 31 C-22 30.34 -22 29.68 -22 29 C-22.99 29 -23.98 29 -25 29 C-25 28.34 -25 27.68 -25 27 C-25.66 26.67 -26.32 26.34 -27 26 C-26.01 26 -25.02 26 -24 26 C-24 26.66 -24 27.32 -24 28 C-23.01 27.34 -22.02 26.68 -21 26 C-21.33 25.34 -21.66 24.68 -22 24 C-20.63875 24.0309375 -20.63875 24.0309375 -19.25 24.0625 C-15.51840002 24.01083082 -15.51840002 24.01083082 -12 23 C-11.67 22.01 -11.34 21.02 -11 20 C-9.2984375 19.195625 -9.2984375 19.195625 -7.5625 18.375 C-5.03457588 17.05923622 -4.17052335 16.42483835 -3.09375 13.7421875 C-2.61438778 11.49341474 -2.23935818 9.28611487 -2 7 C-2.66 7 -3.32 7 -4 7 C-3.67 5.35 -3.34 3.7 -3 2 C-2.01 2 -1.02 2 0 2 C0 1.34 0 0.68 0 0 Z " fill="#3E67A3" transform="translate(131,100)"/>
<path d="M0 0 C1.60488281 -0.02126953 1.60488281 -0.02126953 3.2421875 -0.04296875 C6.125 0.1875 6.125 0.1875 9.125 2.1875 C9.41796875 5.4453125 9.41796875 5.4453125 9.3125 9.3125 C9.27189453 11.23449219 9.27189453 11.23449219 9.23046875 13.1953125 C9.19566406 14.18273437 9.16085938 15.17015625 9.125 16.1875 C12.755 16.1875 16.385 16.1875 20.125 16.1875 C20.125 16.8475 20.125 17.5075 20.125 18.1875 C15.835 17.8575 11.545 17.5275 7.125 17.1875 C7.125 12.2375 7.125 7.2875 7.125 2.1875 C2.835 2.1875 -1.455 2.1875 -5.875 2.1875 C-5.875 7.1375 -5.875 12.0875 -5.875 17.1875 C-6.865 17.5175 -7.855 17.8475 -8.875 18.1875 C-9.205 20.1675 -9.535 22.1475 -9.875 24.1875 C-8.555 24.8475 -7.235 25.5075 -5.875 26.1875 C-5.875 33.1175 -5.875 40.0475 -5.875 47.1875 C-19.40638075 54.91971757 -19.40638075 54.91971757 -26.875 54.1875 C-28.875 52.1875 -28.875 52.1875 -29.10205078 49.57373047 C-29.09157715 48.49494629 -29.08110352 47.41616211 -29.0703125 46.3046875 C-29.06386719 45.13808594 -29.05742187 43.97148438 -29.05078125 42.76953125 C-29.03402344 41.54621094 -29.01726563 40.32289062 -29 39.0625 C-28.99097656 37.83144531 -28.98195313 36.60039063 -28.97265625 35.33203125 C-28.94902633 32.28377194 -28.91315439 29.23561211 -28.875 26.1875 C-24.915 26.1875 -20.955 26.1875 -16.875 26.1875 C-16.875 23.2175 -16.875 20.2475 -16.875 17.1875 C-17.865 16.8575 -18.855 16.5275 -19.875 16.1875 C-19.09125 16.3525 -18.3075 16.5175 -17.5 16.6875 C-14.99291961 17.2498707 -14.99291961 17.2498707 -12.875 17.1875 C-12.545 16.8575 -12.215 16.5275 -11.875 16.1875 C-10.20882885 16.14686168 -8.54111905 16.144779 -6.875 16.1875 C-6.88660156 15.11628906 -6.89820312 14.04507813 -6.91015625 12.94140625 C-6.91953299 11.54427257 -6.92863331 10.14713701 -6.9375 8.75 C-6.94587891 8.04294922 -6.95425781 7.33589844 -6.96289062 6.60742188 C-6.97153588 4.80056441 -6.92720011 2.99362397 -6.875 1.1875 C-5.07595222 -0.61154778 -2.42436549 0.01453457 0 0 Z M-14.875 25.1875 C-15.535 25.8475 -16.195 26.5075 -16.875 27.1875 C-19.2578125 27.6015625 -19.2578125 27.6015625 -22 27.8125 C-22.91007812 27.88726562 -23.82015625 27.96203125 -24.7578125 28.0390625 C-25.80582031 28.11253906 -25.80582031 28.11253906 -26.875 28.1875 C-26.90387236 31.99998426 -26.92175492 35.8124407 -26.9375 39.625 C-26.94587891 40.71361328 -26.95425781 41.80222656 -26.96289062 42.92382812 C-26.96611328 43.95830078 -26.96933594 44.99277344 -26.97265625 46.05859375 C-26.97789307 47.01693115 -26.98312988 47.97526855 -26.98852539 48.96264648 C-27.1255313 51.16035339 -27.1255313 51.16035339 -25.875 52.1875 C-18.46141011 53.1310478 -13.772608 50.62507639 -7.875 46.1875 C-6.28087716 42.99925432 -6.77325265 39.55853338 -6.8125 36.0625 C-6.81701172 35.30839844 -6.82152344 34.55429688 -6.82617188 33.77734375 C-6.83796501 31.91402873 -6.85590058 30.05075445 -6.875 28.1875 C-9.845 27.6925 -9.845 27.6925 -12.875 27.1875 C-12.875 26.5275 -12.875 25.8675 -12.875 25.1875 C-13.535 25.1875 -14.195 25.1875 -14.875 25.1875 Z " fill="#467F47" transform="translate(53.875,67.8125)"/>
<path d="M0 0 C0.4140625 3.16015625 0.4140625 3.16015625 0.625 7.0625 C0.69976563 8.35285156 0.77453125 9.64320312 0.8515625 10.97265625 C0.90054687 11.97167969 0.94953125 12.97070312 1 14 C3.97 14.66 6.94 15.32 10 16 C10.91892116 19.67568464 10.95904856 21.16380575 10 25 C6.04 25 2.08 25 -2 25 C1.4352048 22.70986347 2.985331 22.82157027 7 23 C7 21.68 7 20.36 7 19 C5.02 19 3.04 19 1 19 C1 18.34 1 17.68 1 17 C0.35160156 16.773125 -0.29679687 16.54625 -0.96484375 16.3125 C-3 15 -3 15 -3.50390625 12.6875 C-3.52324219 11.800625 -3.54257812 10.91375 -3.5625 10 C-3.56755634 7.36466487 -3.56755634 7.36466487 -4 5 C-7.4352048 2.70986347 -8.985331 2.82157027 -13 3 C-13.02578125 3.90363281 -13.0515625 4.80726562 -13.078125 5.73828125 C-13.13484375 6.91777344 -13.1915625 8.09726563 -13.25 9.3125 C-13.31960938 11.07013672 -13.31960938 11.07013672 -13.390625 12.86328125 C-14 16 -14 16 -15.921875 17.91796875 C-18 19 -18 19 -20 19 C-18.13433512 22.62793998 -18.13433512 22.62793998 -15 25 C-14.97494385 25.82725586 -14.9498877 26.65451172 -14.92407227 27.50683594 C-14.80803651 31.25471192 -14.685344 35.00234125 -14.5625 38.75 C-14.52318359 40.05195312 -14.48386719 41.35390625 -14.44335938 42.6953125 C-14.38051758 44.57089844 -14.38051758 44.57089844 -14.31640625 46.484375 C-14.27974854 47.63647461 -14.24309082 48.78857422 -14.20532227 49.97558594 C-14.03547826 52.47740224 -13.72031525 54.61091168 -13 57 C-14.48168945 55.88745117 -14.48168945 55.88745117 -16 54 C-16.34057617 51.1809082 -16.34057617 51.1809082 -16.29296875 47.80078125 C-16.28330078 46.59228516 -16.27363281 45.38378906 -16.26367188 44.13867188 C-16.23853516 42.87603516 -16.21339844 41.61339844 -16.1875 40.3125 C-16.17396484 39.03826172 -16.16042969 37.76402344 -16.14648438 36.45117188 C-16.11108199 33.30035943 -16.0616979 30.15038955 -16 27 C-17.98 26.67 -19.96 26.34 -22 26 C-23.125 18.25 -23.125 18.25 -22 16 C-20.35 15.34 -18.7 14.68 -17 14 C-16.67 9.71 -16.34 5.42 -16 1 C-10.14069905 -1.52556076 -6.05985184 -3.02992592 0 0 Z " fill="#2C752E" transform="translate(27,69)"/>
<path d="M0 0 C0.99 0.33 1.98 0.66 3 1 C2 4 2 4 0 5 C-2.49430768 8.66809953 -2.56958508 12.69585081 -3 17 C-1.68 17.33 -0.36 17.66 1 18 C1 18.99 1 19.98 1 21 C2.98 17.04 4.96 13.08 7 9 C8.32 9.33 9.64 9.66 11 10 C9.66666667 12.66666667 8.33333333 15.33333333 7 18 C7.66 18.33 8.32 18.66 9 19 C9.33 18.01 9.66 17.02 10 16 C10.33 16.66 10.66 17.32 11 18 C10.67 18.66 10.34 19.32 10 20 C10.99 19.67 11.98 19.34 13 19 C13.33 17.35 13.66 15.7 14 14 C14.99 14 15.98 14 17 14 C17.268125 13.278125 17.53625 12.55625 17.8125 11.8125 C19.02618879 8.93797393 20.08983806 6.47613585 22 4 C24.6875 3.6875 24.6875 3.6875 27 4 C27 4.66 27 5.32 27 6 C26.34 6 25.68 6 25 6 C25 6.66 25 7.32 25 8 C24.01 8 23.02 8 22 8 C21.61134766 8.80244141 21.61134766 8.80244141 21.21484375 9.62109375 C19.75048236 12.48860529 18.17001195 15.27268894 16.5625 18.0625 C15.96566406 19.10535156 15.36882812 20.14820313 14.75390625 21.22265625 C11.31320559 26.67107087 11.31320559 26.67107087 7.95703125 27.51171875 C5.97135417 27.67447917 3.98567708 27.83723958 2 28 C2 27.34 2 26.68 2 26 C1.34 26 0.68 26 0 26 C-0.33 25.34 -0.66 24.68 -1 24 C-1.99 23.67 -2.98 23.34 -4 23 C-3.67 22.01 -3.34 21.02 -3 20 C-2.34 19.67 -1.68 19.34 -1 19 C-1.99 19 -2.98 19 -4 19 C-5.5107487 15.9785026 -5.55699908 13.2649627 -5 10 C-3.55805467 6.53630616 -1.84056753 3.26700737 0 0 Z M5 20 C6 22 6 22 6 22 Z M3 22 C3 22.66 3 23.32 3 24 C3.66 24 4.32 24 5 24 C5 23.34 5 22.68 5 22 C4.34 22 3.68 22 3 22 Z " fill="#4E6786" transform="translate(101,95)"/>
<path d="M0 0 C0.33 0 0.66 0 1 0 C1.33 2.97 1.66 5.94 2 9 C1.01 8.67 0.02 8.34 -1 8 C-1.268125 8.721875 -1.53625 9.44375 -1.8125 10.1875 C-4.87323944 17.43661972 -4.87323944 17.43661972 -8 19 C-8.72159424 20.64363134 -9.39351421 22.31050386 -10 24 C-10.99 24 -11.98 24 -13 24 C-13 23.01 -13 22.02 -13 21 C-13.66 21.66 -14.32 22.32 -15 23 C-15.66 22.01 -16.32 21.02 -17 20 C-16.2575 19.1028125 -16.2575 19.1028125 -15.5 18.1875 C-13.71723582 16.02970006 -13.71723582 16.02970006 -14 13 C-12.65542068 9.17312039 -10.84556669 5.60724399 -9 2 C-6.36 2 -3.72 2 -1 2 C-0.67 1.34 -0.34 0.68 0 0 Z " fill="#646B70" transform="translate(124,91)"/>
<path d="M0 0 C0 0.99 0 1.98 0 3 C-1.32 3 -2.64 3 -4 3 C-3.90460938 3.81984375 -3.80921875 4.6396875 -3.7109375 5.484375 C-3.60007813 6.56203125 -3.48921875 7.6396875 -3.375 8.75 C-3.25898438 9.81734375 -3.14296875 10.8846875 -3.0234375 11.984375 C-2.99970525 15.03792399 -3.38579015 16.46162421 -5 19 C-3.35 19 -1.7 19 0 19 C0 19.99 0 20.98 0 22 C-1.32 22 -2.64 22 -4 22 C-4 26.62 -4 31.24 -4 36 C-5.485 36.495 -5.485 36.495 -7 37 C-7.33 32.38 -7.66 27.76 -8 23 C-9.32 22.67 -10.64 22.34 -12 22 C-12 21.01 -12 20.02 -12 19 C-10.35 18.67 -8.7 18.34 -7 18 C-7.33 17.67 -7.66 17.34 -8 17 C-8.07271741 14.64686445 -8.08370868 12.29166332 -8.0625 9.9375 C-8.05347656 8.64714844 -8.04445312 7.35679688 -8.03515625 6.02734375 C-8.02355469 5.02832031 -8.01195312 4.02929688 -8 3 C-9.65 2.67 -11.3 2.34 -13 2 C-13 1.34 -13 0.68 -13 0 C-8.38926889 -1.29676812 -4.66159911 -0.71109139 0 0 Z " fill="#4A4A4A" transform="translate(155,69)"/>
<path d="M0 0 C5.31368432 0.27018734 5.31368432 0.27018734 7.6875 2.1875 C8.54779934 4.98347286 8.6875 7.25921074 8.6875 10.1875 C8.790625 11.0125 8.89375 11.8375 9 12.6875 C8.6875 15.1875 8.6875 15.1875 6.625 17 C3.11106691 18.42052614 0.44562331 18.47658641 -3.3125 18.1875 C-5.13366003 16.36633997 -4.4448508 13.88078236 -4.44921875 11.4609375 C-4.44535156 10.71070312 -4.44148437 9.96046875 -4.4375 9.1875 C-4.44136719 8.43726562 -4.44523438 7.68703125 -4.44921875 6.9140625 C-4.43719185 0.2511618 -4.43719185 0.2511618 0 0 Z M-0.3125 4.1875 C-0.3125 5.1775 -0.3125 6.1675 -0.3125 7.1875 C1.3375 6.8575 2.9875 6.5275 4.6875 6.1875 C4.3575 5.5275 4.0275 4.8675 3.6875 4.1875 C2.3675 4.1875 1.0475 4.1875 -0.3125 4.1875 Z M0.6875 10.1875 C0.3575 11.5075 0.0275 12.8275 -0.3125 14.1875 C1.3375 14.1875 2.9875 14.1875 4.6875 14.1875 C4.6875 13.1975 4.6875 12.2075 4.6875 11.1875 C3.3675 10.8575 2.0475 10.5275 0.6875 10.1875 Z " fill="#191519" transform="translate(148.3125,106.8125)"/>
<path d="M0 0 C0.90238747 2.70716242 1.11851302 4.23776768 1.09765625 7.01171875 C1.09443359 7.76904297 1.09121094 8.52636719 1.08789062 9.30664062 C1.07951172 10.09232422 1.07113281 10.87800781 1.0625 11.6875 C1.05798828 12.48478516 1.05347656 13.28207031 1.04882812 14.10351562 C1.0370585 16.06904257 1.01912348 18.03453085 1 20 C0.01 20.33 -0.98 20.66 -2 21 C-3.59412284 17.81175432 -3.10174735 14.37103338 -3.0625 10.875 C-3.05798828 10.12089844 -3.05347656 9.36679688 -3.04882812 8.58984375 C-3.03703499 6.72652873 -3.01909942 4.86325445 -3 3 C-5.64 3.66 -8.28 4.32 -11 5 C-11 4.01 -11 3.02 -11 2 C-11.66 2 -12.32 2 -13 2 C-12.99476318 2.66306152 -12.98952637 3.32612305 -12.98413086 4.00927734 C-12.89061905 17.71408335 -13.02213253 31.3273173 -14 45 C-14.66 44.67 -15.32 44.34 -16 44 C-15.67 29.48 -15.34 14.96 -15 0 C-8.91744533 -0.86893638 -5.74727601 -0.90746463 0 0 Z " fill="#546887" transform="translate(98,69)"/>
<path d="M0 0 C3.3125 1.4375 3.3125 1.4375 5.3125 4.4375 C5.3125 5.7575 5.3125 7.0775 5.3125 8.4375 C2.3425 8.4375 -0.6275 8.4375 -3.6875 8.4375 C-3.6875 9.0975 -3.6875 9.7575 -3.6875 10.4375 C-1.0475 10.1075 1.5925 9.7775 4.3125 9.4375 C3.9375 11.375 3.9375 11.375 3.3125 13.4375 C0.47166359 14.85791821 -1.54227278 14.75202272 -4.6875 14.4375 C-7.0625 12.875 -7.0625 12.875 -8.6875 10.4375 C-9.25 6.9375 -9.25 6.9375 -8.6875 3.4375 C-5.77408127 -0.18220206 -4.63209678 -0.70659103 0 0 Z M-2.6875 3.4375 C-3.0175 4.0975 -3.3475 4.7575 -3.6875 5.4375 C-2.3675 5.1075 -1.0475 4.7775 0.3125 4.4375 C-0.6775 4.1075 -1.6675 3.7775 -2.6875 3.4375 Z " fill="#282425" transform="translate(190.6875,110.5625)"/>
<path d="M0 0 C4.29 0 8.58 0 13 0 C13.05383848 2.45862401 13.09359038 4.9160755 13.125 7.375 C13.14175781 8.07367188 13.15851562 8.77234375 13.17578125 9.4921875 C13.19344267 11.32897486 13.10303261 13.16601963 13 15 C12.34 15.66 11.68 16.32 11 17 C10.01 16.67 9.02 16.34 8 16 C8.875 11.125 8.875 11.125 10 10 C9.34 8.02 8.68 6.04 8 4 C7.01 4.33 6.02 4.66 5 5 C4.938125 6.2375 4.87625 7.475 4.8125 8.75 C4.39643071 12.30550124 4.15744896 12.84639125 1.4375 15.5 C0.2309375 16.2425 0.2309375 16.2425 -1 17 C-2.32 16.34 -3.64 15.68 -5 15 C-3.35 15 -1.7 15 0 15 C0 10.05 0 5.1 0 0 Z " fill="#1A851F" transform="translate(48,70)"/>
<path d="M0 0 C2 1 2 1 3.125 4.0625 C3.41375 5.031875 3.7025 6.00125 4 7 C4.6496875 5.5459375 4.6496875 5.5459375 5.3125 4.0625 C7 1 7 1 10 0 C11.58540715 4.80153785 9.78933062 7.76615914 7.8125 12.1875 C7.50763672 12.92419922 7.20277344 13.66089844 6.88867188 14.41992188 C5.95703125 16.54296875 5.95703125 16.54296875 4 20 C1.87768555 20.71606445 1.87768555 20.71606445 0 21 C-0.33 20.34 -0.66 19.68 -1 19 C-0.608125 18.175 -0.21625 17.35 0.1875 16.5 C1.26584005 11.85484286 -0.11793216 9.40451913 -2.0546875 5.171875 C-3 3 -3 3 -3 1 C-2.01 0.67 -1.02 0.34 0 0 Z " fill="#0E0E0E" transform="translate(161,110)"/>
<path d="M0 0 C1.60407328 -0.02708567 3.2082785 -0.04643483 4.8125 -0.0625 C5.70582031 -0.07410156 6.59914063 -0.08570312 7.51953125 -0.09765625 C10 0 10 0 13 1 C13 3.64 13 6.28 13 9 C10 10 10 10 0 10 C0 18.91 0 27.82 0 37 C2.64 37 5.28 37 8 37 C8 37.66 8 38.32 8 39 C6.72125 39.061875 5.4425 39.12375 4.125 39.1875 C3.04605469 39.23970703 3.04605469 39.23970703 1.9453125 39.29296875 C1.30335937 39.19628906 0.66140625 39.09960938 0 39 C-2.33419824 35.49870264 -2.25710827 34.04538161 -2.265625 29.90625 C-2.26820312 28.71128906 -2.27078125 27.51632813 -2.2734375 26.28515625 C-2.26570313 25.03605469 -2.25796875 23.78695312 -2.25 22.5 C-2.25773437 21.25089844 -2.26546875 20.00179687 -2.2734375 18.71484375 C-2.27085938 17.51988281 -2.26828125 16.32492188 -2.265625 15.09375 C-2.26336914 13.99740234 -2.26111328 12.90105469 -2.25878906 11.77148438 C-2 9 -2 9 0 6 C3.625 5.8125 3.625 5.8125 7 6 C7.33 5.01 7.66 4.02 8 3 C7.05125 2.87625 6.1025 2.7525 5.125 2.625 C2 2 2 2 0 0 Z " fill="#1A8521" transform="translate(62,85)"/>
<path d="M0 0 C2.875 1.0625 2.875 1.0625 4.8125 3.25 C6.12218959 6.71682539 5.94786794 8.53736247 4.875 12.0625 C3.75 14 3.75 14 1.875 15.0625 C-1.625 15.0625 -1.625 15.0625 -5.125 14.0625 C-7.29247549 11.54543169 -7.99318559 9.73804886 -8.625 6.5 C-8.125 4.0625 -8.125 4.0625 -6 1.6875 C-3.125 0.0625 -3.125 0.0625 0 0 Z M-2.125 3.0625 C-3.115 4.5475 -3.115 4.5475 -4.125 6.0625 C-2.145 6.0625 -0.165 6.0625 1.875 6.0625 C1.875 5.4025 1.875 4.7425 1.875 4.0625 C0.555 3.7325 -0.765 3.4025 -2.125 3.0625 Z M-4.125 9.0625 C-3.795 10.0525 -3.465 11.0425 -3.125 12.0625 C0.80575644 11.48797254 0.80575644 11.48797254 3.875 9.0625 C1.235 9.0625 -1.405 9.0625 -4.125 9.0625 Z " fill="#414040" transform="translate(179.125,90.9375)"/>
<path d="M0 0 C4.75 0.75 4.75 0.75 7 3 C7.375 5.9375 7.375 5.9375 7 9 C3 12 3 12 -7 12 C-6.67 19.59 -6.34 27.18 -6 35 C-3.36 35.33 -0.72 35.66 2 36 C0 38 0 38 -3.5 38.25 C-7 38 -7 38 -9 36 C-9.22705078 33.38623047 -9.22705078 33.38623047 -9.1953125 30.1171875 C-9.18886719 28.95058594 -9.18242187 27.78398438 -9.17578125 26.58203125 C-9.15902344 25.35871094 -9.14226563 24.13539062 -9.125 22.875 C-9.11597656 21.64394531 -9.10695313 20.41289063 -9.09765625 19.14453125 C-9.07402633 16.09627194 -9.03815439 13.04811211 -9 10 C-5.04 10 -1.08 10 3 10 C3 7.03 3 4.06 3 1 C2.01 0.67 1.02 0.34 0 0 Z " fill="#568F53" transform="translate(34,84)"/>
<path d="M0 0 C0.99 0 1.98 0 3 0 C3.33 1.32 3.66 2.64 4 4 C5.423125 4.2165625 5.423125 4.2165625 6.875 4.4375 C10 5 10 5 12 6 C12.44921875 7.92578125 12.44921875 7.92578125 12.6875 10.3125 C12.77386719 11.09238281 12.86023438 11.87226562 12.94921875 12.67578125 C12.99984424 14.99287105 12.67173402 16.79287394 12 19 C11.01 18.67 10.02 18.34 9 18 C8.92652344 17.04287109 8.92652344 17.04287109 8.8515625 16.06640625 C8.77679688 15.24011719 8.70203125 14.41382812 8.625 13.5625 C8.55539063 12.73878906 8.48578125 11.91507813 8.4140625 11.06640625 C8.20910156 10.04353516 8.20910156 10.04353516 8 9 C7.34 8.67 6.68 8.34 6 8 C5.01 8.495 5.01 8.495 4 9 C3.53248212 11.35599235 3.53248212 11.35599235 3.375 14.0625 C3.30023438 14.98160156 3.22546875 15.90070313 3.1484375 16.84765625 C3.09945312 17.55792969 3.05046875 18.26820312 3 19 C2.01 18.67 1.02 18.34 0 18 C0 12.06 0 6.12 0 0 Z " fill="#3D3C3F" transform="translate(157,87)"/>
<path d="M0 0 C1.875 1.125 1.875 1.125 3 3 C3.5 6.4375 3.5 6.4375 3 10 C0.875 12.5 0.875 12.5 -2 14 C-5.50732933 14 -7.2434698 13.6345092 -9.9375 11.375 C-11.45719191 7.97804161 -10.79299928 5.56849674 -10 2 C-7.88538617 -2.22922765 -3.89903349 -0.97475837 0 0 Z M-5 2 C-7.28728734 3.83883881 -7.28728734 3.83883881 -7.125 6.625 C-7.08375 7.40875 -7.0425 8.1925 -7 9 C-5.02 9.99 -5.02 9.99 -3 11 C-1.33378575 9.8354799 -1.33378575 9.8354799 0 8 C-0.23043864 5.34533951 -0.23043864 5.34533951 -1 3 C-2.89179203 2.3185177 -2.89179203 2.3185177 -5 2 Z " fill="#484849" transform="translate(167,73)"/>
<path d="M0 0 C0.33 0 0.66 0 1 0 C1.02187378 1.15000488 1.02187378 1.15000488 1.04418945 2.32324219 C1.1186922 5.79933493 1.21534646 9.27446968 1.3125 12.75 C1.33505859 13.9565625 1.35761719 15.163125 1.38085938 16.40625 C1.41630859 17.56640625 1.45175781 18.7265625 1.48828125 19.921875 C1.51446533 20.99018555 1.54064941 22.05849609 1.56762695 23.15917969 C2.04700917 26.30886429 2.98352198 27.60289624 5 30 C5 30.66 5 31.32 5 32 C7.37484362 32.16920005 9.74983478 32.33542863 12.125 32.5 C12.79015625 32.54769531 13.4553125 32.59539062 14.140625 32.64453125 C17.23578963 32.85694451 20.26416605 32.99264503 23.3671875 32.90625 C26 33 26 33 28 35 C21.24132943 38.15908066 13.40962428 38.11694589 6.375 35.8125 C3.71919358 33.78570036 2.45606902 31.98877325 1 29 C0.67 28.34 0.34 27.68 0 27 C-0.08527628 24.96767366 -0.10716135 22.93252994 -0.09765625 20.8984375 C-0.09443359 19.68671875 -0.09121094 18.475 -0.08789062 17.2265625 C-0.07951172 15.95554687 -0.07113281 14.68453125 -0.0625 13.375 C-0.05798828 12.09625 -0.05347656 10.8175 -0.04882812 9.5 C-0.03701203 6.33328708 -0.02053815 3.16666644 0 0 Z " fill="#287A2C" transform="translate(12,95)"/>
<path d="M0 0 C0.33 1.65 0.66 3.3 1 5 C-0.32 5.33 -1.64 5.66 -3 6 C-2.34 5.67 -1.68 5.34 -1 5 C-1 4.01 -1 3.02 -1 2 C-1.99 2 -2.98 2 -4 2 C-4.06058594 2.62648438 -4.12117187 3.25296875 -4.18359375 3.8984375 C-4.26738281 4.71570313 -4.35117188 5.53296875 -4.4375 6.375 C-4.51871094 7.18710938 -4.59992188 7.99921875 -4.68359375 8.8359375 C-5 11 -5 11 -6 13 C-6.66 13 -7.32 13 -8 13 C-8 13.66 -8 14.32 -8 15 C-8.99 15.33 -9.98 15.66 -11 16 C-11.73323796 18.01508358 -11.73323796 18.01508358 -12 20 C-11.34 20 -10.68 20 -10 20 C-10.06006078 21.45947705 -10.1488689 22.91779272 -10.25 24.375 C-10.29640625 25.18710938 -10.3428125 25.99921875 -10.390625 26.8359375 C-11 29 -11 29 -13.046875 30.2890625 C-13.69140625 30.52367188 -14.3359375 30.75828125 -15 31 C-15.33 30.01 -15.66 29.02 -16 28 C-15.01 26.515 -15.01 26.515 -14 25 C-13.79594479 22.78002676 -13.79594479 22.78002676 -13.9375 20.4375 C-14.09770992 16.19541985 -14.09770992 16.19541985 -13 14 C-12.67 13.67 -12.34 13.34 -12 13 C-12.33 13 -12.66 13 -13 13 C-13 10.69 -13 8.38 -13 6 C-12.01 7.32 -11.02 8.64 -10 10 C-7.2027092 7.93243723 -6.97307727 6.85559629 -6.3125 3.3125 C-6.209375 2.219375 -6.10625 1.12625 -6 0 C-3 -1 -3 -1 0 0 Z " fill="#496385" transform="translate(139,87)"/>
<path d="M0 0 C1.65 0.33 3.3 0.66 5 1 C5.6875 2.8125 5.6875 2.8125 6 5 C4.75 6.75 4.75 6.75 3 8 C2.01 8 1.02 8 0 8 C-0.04898438 8.59167969 -0.09796875 9.18335937 -0.1484375 9.79296875 C-0.56456867 14.19104472 -1.04965595 17.96928897 -3 22 C-3.66 20.68 -4.32 19.36 -5 18 C-5.61875 18.185625 -6.2375 18.37125 -6.875 18.5625 C-9 19 -9 19 -11 18 C-9.82191948 14.6470016 -8.80593388 12.2447471 -6 10 C-5.01 9.67 -4.02 9.34 -3 9 C-1.5841351 6.08961104 -0.70077733 3.153498 0 0 Z " fill="#666668" transform="translate(129,75)"/>
<path d="M0 0 C1.37478516 0.01740234 1.37478516 0.01740234 2.77734375 0.03515625 C3.69644531 0.04417969 4.61554688 0.05320312 5.5625 0.0625 C6.27277344 0.07410156 6.98304687 0.08570312 7.71484375 0.09765625 C8.04484375 0.75765625 8.37484375 1.41765625 8.71484375 2.09765625 C5.41484375 2.09765625 2.11484375 2.09765625 -1.28515625 2.09765625 C-0.95515625 9.68765625 -0.62515625 17.27765625 -0.28515625 25.09765625 C6.95757873 25.50524179 6.95757873 25.50524179 12.08984375 22.53515625 C14.05078125 21.09375 14.05078125 21.09375 15.71484375 20.09765625 C16.37484375 20.42765625 17.03484375 20.75765625 17.71484375 21.09765625 C11.40181647 26.64546811 5.94798654 28.53097955 -2.28515625 28.09765625 C-3.2282241 24.90742722 -3.41396813 22.03173554 -3.41796875 18.7109375 C-3.41925781 17.69064453 -3.42054687 16.67035156 -3.421875 15.61914062 C-3.41607422 14.03069336 -3.41607422 14.03069336 -3.41015625 12.41015625 C-3.41402344 11.33958984 -3.41789062 10.26902344 -3.421875 9.16601562 C-3.42058594 8.14958984 -3.41929688 7.13316406 -3.41796875 6.0859375 C-3.41684082 5.15305908 -3.41571289 4.22018066 -3.41455078 3.2590332 C-3.23489381 0.25808389 -3.00958685 0.12861482 0 0 Z " fill="#4C844B" transform="translate(64.28515625,93.90234375)"/>
<path d="M0 0 C0.33 0 0.66 0 1 0 C1.0809723 2.43816585 1.14046972 4.87364384 1.1875 7.3125 C1.22520508 8.34793945 1.22520508 8.34793945 1.26367188 9.40429688 C1.33777767 14.5175964 1.33777767 14.5175964 -0.38671875 16.98046875 C-2 18 -2 18 -4 18 C-2.13433512 21.62793998 -2.13433512 21.62793998 1 24 C1.02505615 24.82725586 1.0501123 25.65451172 1.07592773 26.50683594 C1.19196349 30.25471192 1.314656 34.00234125 1.4375 37.75 C1.47681641 39.05195312 1.51613281 40.35390625 1.55664062 41.6953125 C1.61948242 43.57089844 1.61948242 43.57089844 1.68359375 45.484375 C1.72025146 46.63647461 1.75690918 47.78857422 1.79467773 48.97558594 C1.96452174 51.47740224 2.27968475 53.61091168 3 56 C1.51831055 54.88745117 1.51831055 54.88745117 0 53 C-0.34057617 50.1809082 -0.34057617 50.1809082 -0.29296875 46.80078125 C-0.28330078 45.59228516 -0.27363281 44.38378906 -0.26367188 43.13867188 C-0.23853516 41.87603516 -0.21339844 40.61339844 -0.1875 39.3125 C-0.17396484 38.03826172 -0.16042969 36.76402344 -0.14648438 35.45117188 C-0.11108199 32.30035943 -0.0616979 29.15038955 0 26 C-1.98 25.67 -3.96 25.34 -6 25 C-7.125 17.25 -7.125 17.25 -6 15 C-4.35 14.34 -2.7 13.68 -1 13 C-0.67 8.71 -0.34 4.42 0 0 Z " fill="#3C7B3D" transform="translate(11,70)"/>
<path d="M0 0 C0.99 0 1.98 0 3 0 C3.33 0.99 3.66 1.98 4 3 C5.49985609 4.66710346 5.49985609 4.66710346 7 6 C5.02 6.99 5.02 6.99 3 8 C3 9.98 3 11.96 3 14 C3.99 14 4.98 14 6 14 C6 15.32 6 16.64 6 18 C4.02 17.67 2.04 17.34 0 17 C-1.56674775 11.28978713 -2.33258509 6.81491675 -1 1 C-0.67 0.67 -0.34 0.34 0 0 Z " fill="#221F20" transform="translate(175,107)"/>
<path d="M0 0 C-1.65 0.33 -3.3 0.66 -5 1 C-4.67 9.91 -4.34 18.82 -4 28 C-1.69 28.66 0.62 29.32 3 30 C2.34 31.32 1.68 32.64 1 34 C1 33.34 1 32.68 1 32 C0.071875 32.0825 -0.85625 32.165 -1.8125 32.25 C-5 32 -5 32 -6.69238281 30.35986328 C-8.36539302 27.34057338 -8.27612165 25.42727345 -8.109375 21.9921875 C-8.05910156 20.84105469 -8.00882813 19.68992187 -7.95703125 18.50390625 C-7.88871094 17.30636719 -7.82039063 16.10882813 -7.75 14.875 C-7.69714844 13.66972656 -7.64429687 12.46445313 -7.58984375 11.22265625 C-7.16021933 2.32043866 -7.16021933 2.32043866 -6 0 C-3 -1 -3 -1 0 0 Z " fill="#1B851B" transform="translate(30,92)"/>
<path d="M0 0 C0.33 0 0.66 0 1 0 C0.99476318 1.22517334 0.98952637 2.45034668 0.98413086 3.71264648 C0.96592502 8.29174051 0.9545114 12.87083139 0.94506836 17.44995117 C0.94006359 19.4255426 0.93325775 21.40113036 0.92456055 23.37670898 C0.91232508 26.22901314 0.90673298 29.08126799 0.90234375 31.93359375 C0.89718246 32.80584091 0.89202118 33.67808807 0.88670349 34.57676697 C0.88626412 39.46423408 1.15917502 44.19360803 1.82740784 49.0372467 C2.07040799 51.80069405 1.6203787 54.31169229 1 57 C1.99 57.33 2.98 57.66 4 58 C3.67 58.66 3.34 59.32 3 60 C2.01 59.67 1.02 59.34 0 59 C-1.50132676 55.21699584 -0.98793626 51.23476155 -0.83984375 47.2421875 C-0.76866862 44.79471103 -0.76866862 44.79471103 -3 43 C-2.34 43 -1.68 43 -1 43 C-1.01160156 41.99066406 -1.02320312 40.98132813 -1.03515625 39.94140625 C-1.13557108 26.60819935 -0.6084338 13.31758027 0 0 Z " fill="#426591" transform="translate(85,71)"/>
<path d="M0 0 C2.6875 -0.3125 2.6875 -0.3125 5 0 C5 0.66 5 1.32 5 2 C4.34 2 3.68 2 3 2 C3 2.66 3 3.32 3 4 C2.01 4 1.02 4 0 4 C-0.25910156 4.53109375 -0.51820312 5.0621875 -0.78515625 5.609375 C-2.26933768 8.53001499 -3.83325591 11.39341052 -5.4375 14.25 C-6.03433594 15.32765625 -6.63117188 16.4053125 -7.24609375 17.515625 C-8.11427734 18.74539062 -8.11427734 18.74539062 -9 20 C-9.99 20 -10.98 20 -12 20 C-11.67 19.34 -11.34 18.68 -11 18 C-14.72614153 19.11854586 -14.72614153 19.11854586 -17 22 C-16.67 20.02 -16.34 18.04 -16 16 C-15.01 15.67 -14.02 15.34 -13 15 C-12.67 14.01 -12.34 13.02 -12 12 C-11.67 12.66 -11.34 13.32 -11 14 C-11.33 14.66 -11.66 15.32 -12 16 C-11.01 15.67 -10.02 15.34 -9 15 C-8.67 13.35 -8.34 11.7 -8 10 C-7.01 10 -6.02 10 -5 10 C-4.731875 9.278125 -4.46375 8.55625 -4.1875 7.8125 C-2.97381121 4.93797393 -1.91016194 2.47613585 0 0 Z " fill="#585D55" transform="translate(123,99)"/>
<path d="M0 0 C2.64 0.33 5.28 0.66 8 1 C8.90238747 3.70716242 9.11851302 5.23776768 9.09765625 8.01171875 C9.09443359 8.76904297 9.09121094 9.52636719 9.08789062 10.30664062 C9.07951172 11.09232422 9.07113281 11.87800781 9.0625 12.6875 C9.05798828 13.48478516 9.05347656 14.28207031 9.04882812 15.10351562 C9.0370585 17.06904257 9.01912348 19.03453085 9 21 C8.01 21.33 7.02 21.66 6 22 C4.40587716 18.81175432 4.89825265 15.37103338 4.9375 11.875 C4.94201172 11.12089844 4.94652344 10.36679688 4.95117188 9.58984375 C4.96296501 7.72652873 4.98090058 5.86325445 5 4 C3.68 3.67 2.36 3.34 1 3 C1.33 2.67 1.66 2.34 2 2 C1.34 1.34 0.68 0.68 0 0 Z " fill="#43608A" transform="translate(90,68)"/>
<path d="M0 0 C0.99 0.33 1.98 0.66 3 1 C3 3.33333333 3 5.66666667 3 8 C7.455 7.505 7.455 7.505 12 7 C11.67 8.32 11.34 9.64 11 11 C8.15916359 12.42041821 6.14522722 12.31452272 3 12 C0.625 10.4375 0.625 10.4375 -1 8 C-1.3125 4.3125 -1.3125 4.3125 -1 1 C-0.67 0.67 -0.34 0.34 0 0 Z " fill="#181519" transform="translate(183,113)"/>
<path d="M0 0 C0.66 1.32 1.32 2.64 2 4 C-0.32863414 7.82561324 -1.84716233 10.25848743 -6 12 C-6.495 12.515625 -6.99 13.03125 -7.5 13.5625 C-9.27460185 15.26316011 -10.61006256 15.58794182 -13 16 C-12.04516151 13.54470101 -11.08052812 11.15658246 -9.875 8.8125 C-8.85508364 7.03525867 -8.85508364 7.03525867 -9 5 C-8.01 5 -7.02 5 -6 5 C-6 4.34 -6 3.68 -6 3 C-3.03 3.495 -3.03 3.495 0 4 C0 2.68 0 1.36 0 0 Z " fill="#818C8D" transform="translate(127,76)"/>
<path d="M0 0 C3.3 0 6.6 0 10 0 C10.33 0.66 10.66 1.32 11 2 C9.68 2 8.36 2 7 2 C7 6.62 7 11.24 7 16 C6.01 16.33 5.02 16.66 4 17 C3.96261719 16.02417969 3.92523438 15.04835938 3.88671875 14.04296875 C3.82097656 12.77066406 3.75523437 11.49835938 3.6875 10.1875 C3.62949219 8.92292969 3.57148438 7.65835938 3.51171875 6.35546875 C3.2934145 2.70099298 3.2934145 2.70099298 0 0 Z " fill="#3D3C3D" transform="translate(144,89)"/>
<path d="M0 0 C5.37305699 -0.35233161 5.37305699 -0.35233161 8 0 C10 2 10 2 11 4 C8.125 8.875 8.125 8.875 7 10 C3.5625 9.75 3.5625 9.75 0 9 C-0.66 8.01 -1.32 7.02 -2 6 C-1.125 2.8125 -1.125 2.8125 0 0 Z M1 4 C1.33 4.99 1.66 5.98 2 7 C5.93075644 6.42547254 5.93075644 6.42547254 9 4 C6.36 4 3.72 4 1 4 Z " fill="#3D3C3D" transform="translate(174,96)"/>
<path d="M0 0 C1.22589844 0.15275391 1.22589844 0.15275391 2.4765625 0.30859375 C3.41628906 0.43427734 3.41628906 0.43427734 4.375 0.5625 C5.29392116 4.23818464 5.33404856 5.72630575 4.375 9.5625 C0.415 9.5625 -3.545 9.5625 -7.625 9.5625 C-4.1897952 7.27236347 -2.639669 7.38407027 1.375 7.5625 C1.375 6.2425 1.375 4.9225 1.375 3.5625 C-0.605 3.5625 -2.585 3.5625 -4.625 3.5625 C-4.625 2.9025 -4.625 2.2425 -4.625 1.5625 C-5.285 1.2325 -5.945 0.9025 -6.625 0.5625 C-4.10446405 -0.69776798 -2.7707902 -0.35624445 0 0 Z " fill="#287F28" transform="translate(32.625,84.4375)"/>
<path d="M0 0 C0.66 1.32 1.32 2.64 2 4 C2.99 4 3.98 4 5 4 C5 4.99 5 5.98 5 7 C4.01 7.495 4.01 7.495 3 8 C2.27840576 9.64363134 1.60648579 11.31050386 1 13 C0.01 13 -0.98 13 -2 13 C-2 12.01 -2 11.02 -2 10 C-2.66 10.66 -3.32 11.32 -4 12 C-4.66 11.01 -5.32 10.02 -6 9 C-5.525625 8.401875 -5.05125 7.80375 -4.5625 7.1875 C-2.83534256 4.99617076 -2.83534256 4.99617076 -2 2 C-1.34 2 -0.68 2 0 2 C0 1.34 0 0.68 0 0 Z " fill="#747D7B" transform="translate(113,102)"/>
<path d="M0 0 C2.31 0 4.62 0 7 0 C6.56744475 5.40694067 5.41778487 8.75366122 2 13 C1.34 13 0.68 13 0 13 C-0.33 14.65 -0.66 16.3 -1 18 C-1.99 17.67 -2.98 17.34 -4 17 C-2.62712658 13.30123909 -0.93644547 10.0485524 1.125 6.6875 C1.66382812 5.80449219 2.20265625 4.92148438 2.7578125 4.01171875 C3.16773437 3.34785156 3.57765625 2.68398437 4 2 C2.68 2 1.36 2 0 2 C0 1.34 0 0.68 0 0 Z " fill="#5D645E" transform="translate(104,95)"/>
<path d="M0 0 C0.66 0.33 1.32 0.66 2 1 C4.28938226 8.55496147 3.26726689 15.95780324 0 23 C-2.54464098 27.10115677 -5.27616524 29.65033293 -10 31 C-8.06221159 28.50855776 -6.17635605 26.16598216 -3.875 24 C0.51981212 19.31220041 0.25702463 14.2453995 0.125 8.1875 C0.11597656 7.39923828 0.10695312 6.61097656 0.09765625 5.79882812 C0.07422504 3.86575334 0.03835838 1.9328362 0 0 Z " fill="#415474" transform="translate(138,98)"/>
<path d="M0 0 C3.34126935 4.4550258 3.38621184 5.64738654 3.3125 11 C3.30863281 12.216875 3.30476563 13.43375 3.30078125 14.6875 C3.02293855 17.74737809 2.76550595 19.51744556 1 22 C-1.625 22.75 -1.625 22.75 -4 23 C-3.67 22.34 -3.34 21.68 -3 21 C-2.01 21 -1.02 21 0 21 C0 14.07 0 7.14 0 0 Z " fill="#17851E" transform="translate(48,94)"/>
<path d="M0 0 C0.99 0.495 0.99 0.495 2 1 C1.98839844 1.75925781 1.97679688 2.51851563 1.96484375 3.30078125 C1.95582031 4.29464844 1.94679688 5.28851563 1.9375 6.3125 C1.92589844 7.29863281 1.91429688 8.28476563 1.90234375 9.30078125 C1.87670138 12.09963849 1.87670138 12.09963849 3 15 C6.3 15 9.6 15 13 15 C13 14.01 13 13.02 13 12 C13.99 12.33 14.98 12.66 16 13 C15 16 15 16 13 17 C10.98103136 17.0962762 8.9587571 17.12981825 6.9375 17.125 C5.31134766 17.12886719 5.31134766 17.12886719 3.65234375 17.1328125 C1 17 1 17 0 16 C-0.07319621 13.30345146 -0.09242537 10.63308542 -0.0625 7.9375 C-0.05798828 7.17888672 -0.05347656 6.42027344 -0.04882812 5.63867188 C-0.0370068 3.75908129 -0.01907078 1.87953101 0 0 Z " fill="#3B5C71" transform="translate(83,115)"/>
<path d="M0 0 C2.475 0.99 2.475 0.99 5 2 C4.6875 4.375 4.6875 4.375 4 7 C3.01 7.66 2.02 8.32 1 9 C0.27034634 11.56282742 0.27034634 11.56282742 0 14 C-0.66 13.67 -1.32 13.34 -2 13 C-2.51953125 10.8203125 -2.51953125 10.8203125 -2.8125 8.125 C-2.92207031 7.24070312 -3.03164062 6.35640625 -3.14453125 5.4453125 C-3 3 -3 3 -1.51171875 1.1796875 C-0.76341797 0.59574219 -0.76341797 0.59574219 0 0 Z " fill="#515351" transform="translate(127,66)"/>
<path d="M0 0 C1.60407328 -0.02708567 3.2082785 -0.04643483 4.8125 -0.0625 C5.70582031 -0.07410156 6.59914063 -0.08570312 7.51953125 -0.09765625 C10 0 10 0 13 1 C13 3.64 13 6.28 13 9 C9.79984144 10.06671952 8.11455706 9.94845472 4.8125 9.5625 C3.91144531 9.46066406 3.01039062 9.35882813 2.08203125 9.25390625 C1.39496094 9.17011719 0.70789062 9.08632812 0 9 C0 8.67 0 8.34 0 8 C2.64 7.67 5.28 7.34 8 7 C8.33 5.02 8.66 3.04 9 1 C6.03 1 3.06 1 0 1 C0 0.67 0 0.34 0 0 Z " fill="#237A2C" transform="translate(62,85)"/>
<path d="M0 0 C0.66 0.33 1.32 0.66 2 1 C1.33501617 5.38889325 -0.18757677 8.9811485 -2 13 C-3.32 12.67 -4.64 12.34 -6 12 C-6.24663348 9.04039827 -6.27060295 7.43811906 -4.6875 4.875 C-3.17216289 3.1912921 -1.64023916 1.56213253 0 0 Z " fill="#1F1E1F" transform="translate(170,110)"/>
<path d="M0 0 C1.65 0.33 3.3 0.66 5 1 C5.6875 2.8125 5.6875 2.8125 6 5 C4.75 6.75 4.75 6.75 3 8 C2.01 8 1.02 8 0 8 C-0.33 9.32 -0.66 10.64 -1 12 C-1.66 12 -2.32 12 -3 12 C-2.25749403 7.91621717 -1.17076699 3.98060777 0 0 Z " fill="#595B57" transform="translate(129,75)"/>
<path d="M0 0 C0.33 0 0.66 0 1 0 C1 2.31 1 4.62 1 7 C2.98 6.67 4.96 6.34 7 6 C7.33 4.68 7.66 3.36 8 2 C8.99 2.33 9.98 2.66 11 3 C11 4.65 11 6.3 11 8 C7.36576791 10.32590854 4.22911669 10.16265833 0 10 C0 6.7 0 3.4 0 0 Z " fill="#0D0B0D" transform="translate(145,115)"/>
<path d="M0 0 C1.134375 0.020625 2.26875 0.04125 3.4375 0.0625 C1.4575 1.0525 1.4575 1.0525 -0.5625 2.0625 C0.7575 2.7225 2.0775 3.3825 3.4375 4.0625 C2.1175 4.0625 0.7975 4.0625 -0.5625 4.0625 C-0.5625 5.0525 -0.5625 6.0425 -0.5625 7.0625 C0.7575 7.3925 2.0775 7.7225 3.4375 8.0625 C1.7875 8.3925 0.1375 8.7225 -1.5625 9.0625 C-1.8925 8.4025 -2.2225 7.7425 -2.5625 7.0625 C-2.8925 10.3625 -3.2225 13.6625 -3.5625 17.0625 C-3.8925 17.0625 -4.2225 17.0625 -4.5625 17.0625 C-4.58934679 14.41659986 -4.60926357 11.77096904 -4.625 9.125 C-4.63337891 8.37025391 -4.64175781 7.61550781 -4.65039062 6.83789062 C-4.65902441 4.91255687 -4.61474333 2.98714419 -4.5625 1.0625 C-3.5625 0.0625 -3.5625 0.0625 0 0 Z " fill="#2A2528" transform="translate(148.5625,106.9375)"/>
<path d="M0 0 C0.99 0.33 1.98 0.66 3 1 C3 2.32 3 3.64 3 5 C2.34 5 1.68 5 1 5 C0.87625 5.598125 0.7525 6.19625 0.625 6.8125 C0 9 0 9 -2 12 C-2.66 12 -3.32 12 -4 12 C-4 11.34 -4 10.68 -4 10 C-3.34 10 -2.68 10 -2 10 C-1.67 8.35 -1.34 6.7 -1 5 C-3.31 5 -5.62 5 -8 5 C-5.77077045 2.77077045 -3.90864722 2.11871047 -1 1 C-0.67 0.67 -0.34 0.34 0 0 Z " fill="#1B831E" transform="translate(42,117)"/>
<path d="M0 0 C1.4540625 0.0309375 1.4540625 0.0309375 2.9375 0.0625 C2.9375 0.7225 2.9375 1.3825 2.9375 2.0625 C1.9475 2.5575 1.9475 2.5575 0.9375 3.0625 C0.28536708 5.08713255 0.28536708 5.08713255 -0.0625 7.0625 C0.5975 7.3925 1.2575 7.7225 1.9375 8.0625 C0.0625 9.125 0.0625 9.125 -2.0625 10.0625 C-2.7225 9.7325 -3.3825 9.4025 -4.0625 9.0625 C-4.3925 9.7225 -4.7225 10.3825 -5.0625 11.0625 C-5.0625 10.0725 -5.0625 9.0825 -5.0625 8.0625 C-4.4025 8.0625 -3.7425 8.0625 -3.0625 8.0625 C-3.3409375 6.3609375 -3.3409375 6.3609375 -3.625 4.625 C-3.8415625 2.8615625 -3.8415625 2.8615625 -4.0625 1.0625 C-3.0625 0.0625 -3.0625 0.0625 0 0 Z " fill="#656B67" transform="translate(118.0625,97.9375)"/>
<path d="M0 0 C1.65 0 3.3 0 5 0 C5.66 1.32 6.32 2.64 7 4 C6.67 4 6.34 4 6 4 C6 12.58 6 21.16 6 30 C5.34 29.67 4.68 29.34 4 29 C3.98541748 28.22809326 3.97083496 27.45618652 3.95581055 26.66088867 C3.88141967 23.16924907 3.7847291 19.6785751 3.6875 16.1875 C3.65366211 14.36508789 3.65366211 14.36508789 3.61914062 12.50585938 C3.58369141 11.34248047 3.54824219 10.17910156 3.51171875 8.98046875 C3.48553467 7.90692139 3.45935059 6.83337402 3.43237305 5.72729492 C2.95754526 2.73220672 2.36552932 1.8147658 0 0 Z " fill="#17871A" transform="translate(9,92)"/>
<path d="M0 0 C-1.98 0.99 -1.98 0.99 -4 2 C-3.67 2.66 -3.34 3.32 -3 4 C-4.98 4 -6.96 4 -9 4 C-9.33 8.29 -9.66 12.58 -10 17 C-10.33 17 -10.66 17 -11 17 C-11 11.72 -11 6.44 -11 1 C-3.125 -1.25 -3.125 -1.25 0 0 Z " fill="#236A23" transform="translate(23,68)"/>
<path d="M0 0 C1.32 0.33 2.64 0.66 4 1 C2 5 0 9 -2 13 C-2.99 13 -3.98 13 -5 13 C-4.32116957 9.88452559 -3.25893098 7.14862279 -1.9375 4.25 C-1.57527344 3.45078125 -1.21304688 2.6515625 -0.83984375 1.828125 C-0.56269531 1.22484375 -0.28554687 0.6215625 0 0 Z " fill="#5F656A" transform="translate(108,104)"/>
<path d="M0 0 C0.99 0.33 1.98 0.66 3 1 C2 4 2 4 0 5 C-2.49430768 8.66809953 -2.56958508 12.69585081 -3 17 C-2.01 17.33 -1.02 17.66 0 18 C-1.65 17.67 -3.3 17.34 -5 17 C-5.7342166 10.24520726 -3.27591952 5.81475715 0 0 Z " fill="#425B7C" transform="translate(101,95)"/>
<path d="M0 0 C0.99 0.33 1.98 0.66 3 1 C3 2.98 3 4.96 3 7 C3.99 7 4.98 7 6 7 C6 8.32 6 9.64 6 11 C3.03 10.505 3.03 10.505 0 10 C0 6.7 0 3.4 0 0 Z " fill="#131214" transform="translate(175,114)"/>
<path d="M0 0 C2.64 0.33 5.28 0.66 8 1 C9.03159626 4.09478879 8.97482862 5.52631393 8.5625 8.6875 C8.46066406 9.49574219 8.35882813 10.30398437 8.25390625 11.13671875 C8.17011719 11.75160156 8.08632812 12.36648437 8 13 C7.34 13 6.68 13 6 13 C6 9.7 6 6.4 6 3 C4.35 3.33 2.7 3.66 1 4 C1.33 3.34 1.66 2.68 2 2 C1.34 1.34 0.68 0.68 0 0 Z " fill="#425474" transform="translate(90,68)"/>
<path d="M0 0 C0.33 1.32 0.66 2.64 1 4 C0.195625 4.2475 -0.60875 4.495 -1.4375 4.75 C-4.171081 5.72238859 -4.171081 5.72238859 -4.8125 8.125 C-4.874375 8.74375 -4.93625 9.3625 -5 10 C-5.66 10 -6.32 10 -7 10 C-7 9.01 -7 8.02 -7 7 C-8.65 6.67 -10.3 6.34 -12 6 C-11.67 5.34 -11.34 4.68 -11 4 C-10.01 4 -9.02 4 -8 4 C-8 3.34 -8 2.68 -8 2 C-7.401875 2.185625 -6.80375 2.37125 -6.1875 2.5625 C-3.83591238 3.22093687 -3.83591238 3.22093687 -1 2 C-0.67 1.34 -0.34 0.68 0 0 Z " fill="#485F89" transform="translate(117,89)"/>
<path d="M0 0 C6.75 1.625 6.75 1.625 9 5 C9 6.32 9 7.64 9 9 C6.69 8.67 4.38 8.34 2 8 C2.99 7.67 3.98 7.34 5 7 C5 6.01 5 5.02 5 4 C2.525 3.01 2.525 3.01 0 2 C0 1.34 0 0.68 0 0 Z " fill="#150F10" transform="translate(187,110)"/>
<path d="M0 0 C0.99 0.66 1.98 1.32 3 2 C3.51579638 5.8168932 2.58076658 8.54207311 1 12 C0.67 12 0.34 12 0 12 C0 10.35 0 8.7 0 7 C-0.66 7 -1.32 7 -2 7 C-2 7.66 -2 8.32 -2 9 C-2.99 8.67 -3.98 8.34 -5 8 C-5.33 7.34 -5.66 6.68 -6 6 C-5.195625 5.566875 -4.39125 5.13375 -3.5625 4.6875 C-0.72153646 3.19525998 -0.72153646 3.19525998 0 0 Z " fill="#6F7371" transform="translate(123,72)"/>
<path d="M0 0 C0.66 0.33 1.32 0.66 2 1 C2 2.98 2 4.96 2 7 C1.01 6.67 0.02 6.34 -1 6 C-1 5.67 -1 5.34 -1 5 C-1.556875 5.350625 -2.11375 5.70125 -2.6875 6.0625 C-5.53886783 7.21845993 -7.08517222 6.80967438 -10 6 C-6.71739341 3.81159561 -3.49181927 1.84114107 0 0 Z " fill="#1C8523" transform="translate(80,116)"/>
<path d="M0 0 C0.33 1.65 0.66 3.3 1 5 C-0.32 5.33 -1.64 5.66 -3 6 C-2.34 5.67 -1.68 5.34 -1 5 C-1 4.01 -1 3.02 -1 2 C-1.99 2 -2.98 2 -4 2 C-4 3.98 -4 5.96 -4 8 C-4.99 8.33 -5.98 8.66 -7 9 C-6.67 6.03 -6.34 3.06 -6 0 C-3 -1 -3 -1 0 0 Z " fill="#4E565D" transform="translate(139,87)"/>
<path d="M0 0 C1.32 0.33 2.64 0.66 4 1 C3.34 1 2.68 1 2 1 C2 1.99 2 2.98 2 4 C2.99 4.33 3.98 4.66 5 5 C4.01 5.33 3.02 5.66 2 6 C0.55129381 7.85804317 0.55129381 7.85804317 -0.6875 10.0625 C-1.12449219 10.79597656 -1.56148438 11.52945313 -2.01171875 12.28515625 C-2.50091797 13.13400391 -2.50091797 13.13400391 -3 14 C-4.60031344 10.79937313 -3.03173691 8.27728194 -2 5 C-1.01 5 -0.02 5 1 5 C0.67 3.35 0.34 1.7 0 0 Z " fill="#4F666B" transform="translate(116,79)"/>
<path d="M0 0 C2.67420119 1.0534732 3.59014593 2.38311578 5.0625 4.8125 C5.0625 5.4725 5.0625 6.1325 5.0625 6.8125 C4.4025 6.8125 3.7425 6.8125 3.0625 6.8125 C1.4375 4.8125 1.4375 4.8125 0.0625 2.8125 C-1.5875 4.4625 -3.2375 6.1125 -4.9375 7.8125 C-5.5975 7.4825 -6.2575 7.1525 -6.9375 6.8125 C-3.58621963 -0.34705351 -3.58621963 -0.34705351 0 0 Z " fill="#2F7831" transform="translate(46.9375,121.1875)"/>
<path d="M0 0 C2.97 0.33 5.94 0.66 9 1 C9 1.33 9 1.66 9 2 C12.3 2.33 15.6 2.66 19 3 C19 3.33 19 3.66 19 4 C16.77144426 4.0814222 14.54202345 4.13938079 12.3125 4.1875 C10.45044922 4.23970703 10.45044922 4.23970703 8.55078125 4.29296875 C4.80907731 3.9842473 2.96217879 3.24853724 0 1 C0 0.67 0 0.34 0 0 Z " fill="#38723A" transform="translate(52,128)"/>
<path d="M0 0 C2.875 -0.125 2.875 -0.125 6 0 C6.66 0.66 7.32 1.32 8 2 C3.92276266 3.95031692 0.68307578 4.21581971 -3.8125 4.125 C-4.97394531 4.10695312 -6.13539062 4.08890625 -7.33203125 4.0703125 C-8.21246094 4.04710937 -9.09289062 4.02390625 -10 4 C-10 3.67 -10 3.34 -10 3 C-6.37 3 -2.74 3 1 3 C0.67 2.01 0.34 1.02 0 0 Z " fill="#377A38" transform="translate(32,128)"/>
<path d="M0 0 C3.83310811 0.02060811 3.83310811 0.02060811 6.125 2.3125 C6.455 2.9725 6.785 3.6325 7.125 4.3125 C5.125 5.3125 5.125 5.3125 1.625 5.25 C-1.93378466 4.90837188 -1.93378466 4.90837188 -3.875 7.3125 C-4.25633299 5.3210944 -4.58825582 3.31970923 -4.875 1.3125 C-3.875 0.3125 -3.875 0.3125 0 0 Z " fill="#514E4F" transform="translate(177.875,95.6875)"/>
<path d="M0 0 C2.40563753 2.40563753 2.60358311 3.67009811 3 7 C2.5625 9.3125 2.5625 9.3125 2 11 C1.01 10.67 0.02 10.34 -1 10 C-1.02689216 8.52093108 -1.04634621 7.04172517 -1.0625 5.5625 C-1.07410156 4.73878906 -1.08570313 3.91507812 -1.09765625 3.06640625 C-1 1 -1 1 0 0 Z " fill="#3A3939" transform="translate(167,95)"/>
<path d="M0 0 C2.4375 1.1875 2.4375 1.1875 5 3 C5.8125 5.6875 5.8125 5.6875 6 8 C2.7 8 -0.6 8 -4 8 C-4 7.67 -4 7.34 -4 7 C-0.535 6.505 -0.535 6.505 3 6 C1.68 4.68 0.36 3.36 -1 2 C-0.67 1.34 -0.34 0.68 0 0 Z " fill="#343233" transform="translate(179,91)"/>
<path d="M0 0 C0.99 0.495 0.99 0.495 2 1 C2.4140625 4.16015625 2.4140625 4.16015625 2.625 8.0625 C2.69976563 9.35285156 2.77453125 10.64320312 2.8515625 11.97265625 C2.90054687 12.97167969 2.94953125 13.97070312 3 15 C2.01 15 1.02 15 0 15 C0 10.05 0 5.1 0 0 Z " fill="#4F834D" transform="translate(25,70)"/>
<path d="M0 0 C0.66 0.33 1.32 0.66 2 1 C-0.48784187 3.61878091 -2.98897417 5.99264944 -6 8 C-8.8125 7.75 -8.8125 7.75 -11 7 C-11 6.34 -11 5.68 -11 5 C-10.45730469 4.80664062 -9.91460937 4.61328125 -9.35546875 4.4140625 C-8.64003906 4.15367188 -7.92460938 3.89328125 -7.1875 3.625 C-6.47980469 3.36976562 -5.77210937 3.11453125 -5.04296875 2.8515625 C-2.75226641 1.9734231 -2.75226641 1.9734231 0 0 Z " fill="#435C7C" transform="translate(123,116)"/>
<path d="M0 0 C0.66 0.66 1.32 1.32 2 2 C1.67 2.99 1.34 3.98 1 5 C0.34 4.67 -0.32 4.34 -1 4 C-1.4021875 5.2065625 -1.4021875 5.2065625 -1.8125 6.4375 C-2.4003125 7.7059375 -2.4003125 7.7059375 -3 9 C-3.99 9.33 -4.98 9.66 -6 10 C-5.67 8.35 -5.34 6.7 -5 5 C-4.34 5 -3.68 5 -3 5 C-3 4.34 -3 3.68 -3 3 C-1.5 1.375 -1.5 1.375 0 0 Z " fill="#7E8A7D" transform="translate(124,95)"/>
<path d="M0 0 C0.33 0.99 0.66 1.98 1 3 C0.01 3.495 0.01 3.495 -1 4 C-1.72159424 5.64363134 -2.39351421 7.31050386 -3 9 C-3.99 9 -4.98 9 -6 9 C-5.67 7.02 -5.34 5.04 -5 3 C-4.34 3 -3.68 3 -3 3 C-3 2.34 -3 1.68 -3 1 C-2.01 0.67 -1.02 0.34 0 0 Z " fill="#727770" transform="translate(117,106)"/>
<path d="M0 0 C0.33 0.99 0.66 1.98 1 3 C1.99 3.33 2.98 3.66 4 4 C3.34 5.98 2.68 7.96 2 10 C1.34 8.68 0.68 7.36 0 6 C-0.61875 6.185625 -1.2375 6.37125 -1.875 6.5625 C-4 7 -4 7 -6 6 C-6 5.34 -6 4.68 -6 4 C-3.525 4.495 -3.525 4.495 -1 5 C-0.67 3.35 -0.34 1.7 0 0 Z " fill="#55615A" transform="translate(124,87)"/>
<path d="M0 0 C0.99 0 1.98 0 3 0 C2.979375 0.928125 2.95875 1.85625 2.9375 2.8125 C2.84230396 6.02286011 2.84230396 6.02286011 4 9 C3.01 10.485 3.01 10.485 2 12 C2 11.01 2 10.02 2 9 C1.34 8.67 0.68 8.34 0 8 C0 5.36 0 2.72 0 0 Z " fill="#53677D" transform="translate(135,89)"/>
<path d="M0 0 C4.75 0.75 4.75 0.75 7 3 C7.125 6.125 7.125 6.125 7 9 C6.01 9 5.02 9 4 9 C3.67 6.36 3.34 3.72 3 1 C2.01 0.67 1.02 0.34 0 0 Z " fill="#5B8C5B" transform="translate(34,84)"/>
<path d="M0 0 C0.33 0 0.66 0 1 0 C1 3.63 1 7.26 1 11 C0.34 11 -0.32 11 -1 11 C-1.33 11.99 -1.66 12.98 -2 14 C-2.99 14 -3.98 14 -5 14 C-5.33 14.99 -5.66 15.98 -6 17 C-6 15.68 -6 14.36 -6 13 C-2.78571429 10 -2.78571429 10 0 10 C0 6.7 0 3.4 0 0 Z " fill="#118314" transform="translate(13,75)"/>
<path d="M0 0 C3.96 0.33 7.92 0.66 12 1 C12 1.66 12 2.32 12 3 C10.56344146 3.08131463 9.1255517 3.13933559 7.6875 3.1875 C6.48673828 3.23970703 6.48673828 3.23970703 5.26171875 3.29296875 C3 3 3 3 0 0 Z " fill="#167B1A" transform="translate(21,128)"/>
<path d="M0 0 C1 2 1 2 0.25 4.5625 C-1 7 -1 7 -4 8 C-4.33 8.66 -4.66 9.32 -5 10 C-4.67 8.02 -4.34 6.04 -4 4 C-3.01 3.67 -2.02 3.34 -1 3 C-0.67 2.01 -0.34 1.02 0 0 Z " fill="#5E6465" transform="translate(111,111)"/>
<path d="M0 0 C2.31 0 4.62 0 7 0 C6.67 2.31 6.34 4.62 6 7 C4.68 6.34 3.36 5.68 2 5 C2.66 4.01 3.32 3.02 4 2 C2.68 2 1.36 2 0 2 C0 1.34 0 0.68 0 0 Z " fill="#65737C" transform="translate(104,95)"/>
<path d="M0 0 C0 0.66 0 1.32 0 2 C-0.99 2.33 -1.98 2.66 -3 3 C-3.33 4.98 -3.66 6.96 -4 9 C-4.66 8.67 -5.32 8.34 -6 8 C-6 6.68 -6 5.36 -6 4 C-6.99 3.34 -7.98 2.68 -9 2 C-2.25 0 -2.25 0 0 0 Z " fill="#577A8C" transform="translate(117,82)"/>
<path d="M0 0 C1.25541557 3.76624671 0.37061958 5.37188934 -1 9 C-1.99 8.67 -2.98 8.34 -4 8 C-4 6.35 -4 4.7 -4 3 C-3.01 3 -2.02 3 -1 3 C-0.67 2.01 -0.34 1.02 0 0 Z " fill="#424242" transform="translate(160,74)"/>
<path d="M0 0 C0.99 0 1.98 0 3 0 C3.33 0.99 3.66 1.98 4 3 C5.49985609 4.66710346 5.49985609 4.66710346 7 6 C5.02 6.99 5.02 6.99 3 8 C1.92474806 5.34771188 0.90543849 2.71631546 0 0 Z " fill="#292728" transform="translate(175,107)"/>
<path d="M0 0 C0.99 0 1.98 0 3 0 C3.185625 0.9590625 3.185625 0.9590625 3.375 1.9375 C3.684375 2.9584375 3.684375 2.9584375 4 4 C4.66 4.33 5.32 4.66 6 5 C4.125 6.0625 4.125 6.0625 2 7 C1.34 6.67 0.68 6.34 0 6 C0 4.02 0 2.04 0 0 Z " fill="#505051" transform="translate(157,87)"/>
<path d="M0 0 C2.3125 0.1875 2.3125 0.1875 5 1 C6.6875 3.4375 6.6875 3.4375 8 6 C8.66 6.66 9.32 7.32 10 8 C9.01 8.495 9.01 8.495 8 9 C5.0702992 6.17493137 2.49825283 3.21203935 0 0 Z " fill="#1D8321" transform="translate(46,120)"/>
<path d="M0 0 C3.63 0.66 7.26 1.32 11 2 C9 4 9 4 5.375 4.125 C4.26125 4.08375 3.1475 4.0425 2 4 C1.34 2.68 0.68 1.36 0 0 Z " fill="#468C46" transform="translate(25,118)"/>
<path d="M0 0 C0.66 0.33 1.32 0.66 2 1 C2.625 4.0625 2.625 4.0625 3 7 C2.01 6.67 1.02 6.34 0 6 C0 5.01 0 4.02 0 3 C-0.99 3 -1.98 3 -3 3 C-3 2.34 -3 1.68 -3 1 C-2.01 0.67 -1.02 0.34 0 0 Z " fill="#232122" transform="translate(161,110)"/>
<path d="M0 0 C2.64 0 5.28 0 8 0 C3.25 3.875 3.25 3.875 1 5 C0.67 3.35 0.34 1.7 0 0 Z " fill="#4D6A8F" transform="translate(86,69)"/>
<path d="M0 0 C2.97 0.33 5.94 0.66 9 1 C9 1.66 9 2.32 9 3 C9.66 3.33 10.32 3.66 11 4 C6.44262737 3.56179109 3.42346555 3.14958831 0 0 Z " fill="#455A7D" transform="translate(100,128)"/>
<path d="M0 0 C1.65 0 3.3 0 5 0 C5 0.66 5 1.32 5 2 C4.34 2 3.68 2 3 2 C3 2.66 3 3.32 3 4 C2.01 4 1.02 4 0 4 C-0.33 4.66 -0.66 5.32 -1 6 C-1 2 -1 2 0 0 Z " fill="#4B5A5B" transform="translate(123,99)"/>
<path d="M0 0 C0.33 0.66 0.66 1.32 1 2 C-1.65654657 5.73884332 -3.58110387 7.64978174 -8 9 C-5.50174717 5.78796065 -2.9297008 2.82506863 0 0 Z " fill="#384969" transform="translate(136,120)"/>
<path d="M0 0 C0.625 1.8125 0.625 1.8125 1 4 C0.01 5.485 0.01 5.485 -1 7 C-1.99 6.67 -2.98 6.34 -4 6 C-4 5.01 -4 4.02 -4 3 C-3.01 2.67 -2.02 2.34 -1 2 C-0.67 1.34 -0.34 0.68 0 0 Z " fill="#667667" transform="translate(124,91)"/>
<path d="M0 0 C0.33 0 0.66 0 1 0 C1.04898437 0.68707031 1.09796875 1.37414062 1.1484375 2.08203125 C1.22320313 2.98308594 1.29796875 3.88414063 1.375 4.8125 C1.44460937 5.70582031 1.51421875 6.59914063 1.5859375 7.51953125 C1.86645036 10.24398499 1.86645036 10.24398499 4 13 C3.01 13.33 2.02 13.66 1 14 C-0.04976964 10.85069107 -0.10131595 8.61185544 -0.0625 5.3125 C-0.05347656 4.31863281 -0.04445313 3.32476562 -0.03515625 2.30078125 C-0.02355469 1.54152344 -0.01195313 0.78226562 0 0 Z " fill="#188618" transform="translate(23,74)"/>
<path d="M0 0 C0 1.65 0 3.3 0 5 C-1.98 4.34 -3.96 3.68 -6 3 C-6 2.34 -6 1.68 -6 1 C-1.125 0 -1.125 0 0 0 Z " fill="#5A5A5A" transform="translate(148,68)"/>
<path d="M0 0 C0.99 0.33 1.98 0.66 3 1 C3 3 3 5 3 7 C2.01 7 1.02 7 0 7 C-0.38133299 5.0085944 -0.71325582 3.00720923 -1 1 C-0.67 0.67 -0.34 0.34 0 0 Z " fill="#121011" transform="translate(183,113)"/>
<path d="M0 0 C1.32 0.33 2.64 0.66 4 1 C3.34 2.32 2.68 3.64 2 5 C0.68 4.67 -0.64 4.34 -2 4 C-1.34 2.68 -0.68 1.36 0 0 Z " fill="#555A61" transform="translate(108,104)"/>
<path d="M0 0 C0.33 0 0.66 0 1 0 C1 2.64 1 5.28 1 8 C-0.32 8 -1.64 8 -3 8 C-2.01 5.36 -1.02 2.72 0 0 Z " fill="#2F6031" transform="translate(74,86)"/>
<path d="M0 0 C0.66 0.66 1.32 1.32 2 2 C0.75 3.5625 0.75 3.5625 -1 5 C-3.1875 4.6875 -3.1875 4.6875 -5 4 C-3.35 2.68 -1.7 1.36 0 0 Z " fill="#436495" transform="translate(129,124)"/>
<path d="M0 0 C0.33 0.66 0.66 1.32 1 2 C1.99 1.67 2.98 1.34 4 1 C4 1.99 4 2.98 4 4 C1.0625 3.625 1.0625 3.625 -2 3 C-2.33 2.34 -2.66 1.68 -3 1 C-2.01 0.67 -1.02 0.34 0 0 Z " fill="#456894" transform="translate(111,121)"/>
<path d="M0 0 C0.99 0 1.98 0 3 0 C1.52307692 4.67692308 1.52307692 4.67692308 -1.125 6.3125 C-2.053125 6.6528125 -2.053125 6.6528125 -3 7 C-3 5 -3 5 -1 3 C-0.67 2.01 -0.34 1.02 0 0 Z " fill="#436491" transform="translate(134,118)"/>
<path d="M0 0 C-1.32 0.99 -2.64 1.98 -4 3 C-4.33 2.67 -4.66 2.34 -5 2 C-5.33 2.66 -5.66 3.32 -6 4 C-6.66 4 -7.32 4 -8 4 C-7.6875 2.0625 -7.6875 2.0625 -7 0 C-3.86650268 -1.04449911 -3.01031744 -0.93423645 0 0 Z " fill="#505050" transform="translate(165,73)"/>
<path d="" fill="#404040" transform="translate(0,0)"/>
</svg>
