<?xml version="1.0" encoding="UTF-8"?>
<svg version="1.1" xmlns="http://www.w3.org/2000/svg" width="512" height="512">
<path d="M0 0 C1.01790619 0.00215515 2.03581238 0.0043103 3.08456421 0.00653076 C17.69363523 0.05620146 32.02575853 0.30709809 46.375 3.3125 C47.34985352 3.51117676 48.32470703 3.70985352 49.32910156 3.91455078 C97.7109774 14.03517194 141.69928269 35.9516877 177.375 70.3125 C178.3640332 71.26068604 178.3640332 71.26068604 179.37304688 72.22802734 C188.86130305 81.37247479 197.6012044 90.66984009 205.375 101.3125 C206.23306152 102.46355017 207.09113451 103.61459177 207.94921875 104.765625 C213.98736829 112.95680614 219.34595521 121.47054105 224.375 130.3125 C224.73948242 130.94430176 225.10396484 131.57610352 225.47949219 132.22705078 C247.08534998 169.97532572 256.85198095 212.74189997 256.6875 255.9375 C256.68534485 256.95540619 256.6831897 257.97331238 256.68096924 259.02206421 C256.63129854 273.63113523 256.38040191 287.96325853 253.375 302.3125 C253.07698486 303.77478027 253.07698486 303.77478027 252.77294922 305.26660156 C242.65232806 353.6484774 220.7358123 397.63678269 186.375 433.3125 C185.74287598 433.97185547 185.11075195 434.63121094 184.45947266 435.31054688 C175.31502521 444.79880305 166.01765991 453.5387044 155.375 461.3125 C154.22394983 462.17056152 153.07290823 463.02863451 151.921875 463.88671875 C143.73224019 469.92427396 135.22961724 475.30707302 126.375 480.3125 C125.66778809 480.7146875 124.96057617 481.116875 124.23193359 481.53125 C101.09654164 494.5566741 75.92537591 503.30551461 49.9375 508.625 C49.21860596 508.77235596 48.49971191 508.91971191 47.7590332 509.0715332 C33.08339502 511.86090125 18.55831162 512.66142619 3.64770508 512.62817383 C0.70811513 512.6250221 -2.2304558 512.64854926 -5.16992188 512.67382812 C-18.54306192 512.71848737 -31.43916711 511.51301542 -44.625 509.3125 C-46.33055054 509.03031616 -46.33055054 509.03031616 -48.07055664 508.74243164 C-91.33802759 500.97044532 -132.38793216 480.98345309 -165.625 452.3125 C-166.37007813 451.67828125 -167.11515625 451.0440625 -167.8828125 450.390625 C-181.38779833 438.57948485 -194.05918743 425.82889772 -204.625 411.3125 C-205.48149066 410.16255169 -206.33826433 409.01281411 -207.1953125 407.86328125 C-213.23534209 399.67315742 -218.61867614 391.16870382 -223.625 382.3125 C-224.0271875 381.60528809 -224.429375 380.89807617 -224.84375 380.16943359 C-237.8691741 357.03404164 -246.61801461 331.86287591 -251.9375 305.875 C-252.08485596 305.15610596 -252.23221191 304.43721191 -252.3840332 303.6965332 C-255.35789088 288.05024391 -255.99800362 272.57681954 -255.9375 256.6875 C-255.93534485 255.66959381 -255.9331897 254.65168762 -255.93096924 253.60293579 C-255.88129854 238.99386477 -255.63040191 224.66174147 -252.625 210.3125 C-252.42632324 209.33764648 -252.22764648 208.36279297 -252.02294922 207.35839844 C-241.90232806 158.9765226 -219.9858123 114.98821731 -185.625 79.3125 C-184.99287598 78.65314453 -184.36075195 77.99378906 -183.70947266 77.31445312 C-174.56502521 67.82619695 -165.26765991 59.0862956 -154.625 51.3125 C-153.47394983 50.45443848 -152.32290823 49.59636549 -151.171875 48.73828125 C-142.98224019 42.70072604 -134.47961724 37.31792698 -125.625 32.3125 C-124.91778809 31.9103125 -124.21057617 31.508125 -123.48193359 31.09375 C-100.34654164 18.0683259 -75.17537591 9.31948539 -49.1875 4 C-48.46860596 3.85264404 -47.74971191 3.70528809 -47.0090332 3.5534668 C-31.36274391 0.57960912 -15.88931954 -0.06050362 0 0 Z " fill="#1AA3FF" transform="translate(255.625,-0.3125)"/>
<path d="M0 0 C9.93703031 8.89693674 19.30936153 18.40618402 27.36328125 29.05078125 C27.90855469 29.75734863 28.45382812 30.46391602 29.015625 31.19189453 C30.85876273 33.58945998 32.67624382 36.00464543 34.48828125 38.42578125 C35.08205566 39.19962158 35.67583008 39.97346191 36.28759766 40.77075195 C36.83077637 41.510271 37.37395508 42.24979004 37.93359375 43.01171875 C38.42617676 43.66962402 38.91875977 44.3275293 39.42626953 45.00537109 C40.69214104 47.76865185 40.27907885 49.19123845 39.36328125 52.05078125 C38.35449219 53.94091797 38.35449219 53.94091797 37.09765625 55.73046875 C36.39141113 56.74089233 36.39141113 56.74089233 35.67089844 57.77172852 C34.89987793 58.83798462 34.89987793 58.83798462 34.11328125 59.92578125 C33.57606445 60.674646 33.03884766 61.42351074 32.48535156 62.19506836 C19.35811231 80.2174361 3.68851012 97.25006991 -14.63671875 110.05078125 C-15.70921875 110.80617188 -16.78171875 111.5615625 -17.88671875 112.33984375 C-30.87065389 121.21071399 -45.3702503 128.20209173 -60.63671875 132.05078125 C-61.45398438 132.2621875 -62.27125 132.47359375 -63.11328125 132.69140625 C-93.5446988 140.01167851 -125.74895917 134.10128268 -152.33984375 118.140625 C-175.06962749 103.73252749 -194.49229697 85.78272382 -210.25146484 63.94433594 C-211.54931414 62.17025784 -212.88625146 60.43852132 -214.25 58.71484375 C-215.36955078 57.27238281 -215.36955078 57.27238281 -216.51171875 55.80078125 C-217.14851562 54.99125 -217.7853125 54.18171875 -218.44140625 53.34765625 C-219.63671875 51.05078125 -219.63671875 51.05078125 -219.58203125 48.63671875 C-214.60901652 35.03285201 -201.33383354 22.40351858 -191.63671875 12.05078125 C-191.17845703 11.55852051 -190.72019531 11.06625977 -190.24804688 10.55908203 C-136.69823278 -46.49316015 -59.20867555 -51.74698168 0 0 Z " fill="#FDFEFF" transform="translate(345.63671875,206.94921875)"/>
<path d="M0 0 C1.18843506 0.01123901 1.18843506 0.01123901 2.40087891 0.02270508 C18.87685441 0.32518709 34.29070583 6.63611567 46.375 18 C57.54363068 29.85382275 64.57288889 45.26140233 64.375 61.5625 C64.36533203 62.40208252 64.35566406 63.24166504 64.34570312 64.10668945 C64.02957847 80.46139845 58.43317007 95.13758508 47.125 107.25 C46.50625 107.92160156 45.8875 108.59320313 45.25 109.28515625 C33.99099993 120.35224154 17.86300878 126.41531733 2.25 126.625 C-16.00527471 126.40195216 -31.18771471 120.13658588 -44.02734375 107.29296875 C-57.65403773 93.031227 -61.45039488 76.6617388 -61.1171875 57.54296875 C-60.91159762 51.69994147 -60.17610584 46.65223772 -57.875 41.25 C-57.42253906 40.14785156 -56.97007812 39.04570312 -56.50390625 37.91015625 C-49.50870764 22.4603291 -37.32500255 10.41244355 -21.5625 3.8125 C-14.34573873 1.13050793 -7.65398117 -0.09590017 0 0 Z " fill="#1CA4FF" transform="translate(254.875,192.75)"/>
<path d="M0 0 C8.3499476 6.99757868 14.55940181 15.81471054 15.625 26.86328125 C15.9821818 38.99168322 14.10507803 48.87513309 6.06640625 58.453125 C-1.51984476 66.22903229 -10.38248757 71.11665123 -21.3190918 71.54882812 C-33.74937351 71.69887679 -42.74148627 68.86616223 -52.24609375 60.328125 C-61.06552977 50.63622865 -63.49834293 39.45011978 -63.21484375 26.78125 C-62.58639102 16.98524306 -57.18397728 8.21809253 -49.9921875 1.69921875 C-35.12182615 -9.44708689 -15.39886766 -11.12748901 0 0 Z " fill="#FDFEFF" transform="translate(279.74609375,223.984375)"/>
</svg>
